<?xml version="1.0" encoding="UTF-8" standalone="no"?>
<!-- Created with Inkscape (http://www.inkscape.org/) -->

<svg
   height="1000"
   width="1000"
   sodipodi:docname="B.svg"
   version="1.1"
   id="svg1"
   inkscape:version="1.3 (0e150ed6c4, 2023-07-21)"
   xmlns:inkscape="http://www.inkscape.org/namespaces/inkscape"
   xmlns:sodipodi="http://sodipodi.sourceforge.net/DTD/sodipodi-0.dtd"
   xmlns="http://www.w3.org/2000/svg"
   xmlns:svg="http://www.w3.org/2000/svg"
   xmlns:rdf="http://www.w3.org/1999/02/22-rdf-syntax-ns#"
   xmlns:cc="http://creativecommons.org/ns#"
   xmlns:dc="http://purl.org/dc/elements/1.1/">
  <sodipodi:namedview
     id="base"
     pagecolor="#ffffff"
     bordercolor="#000000"
     borderopacity="0.3"
     inkscape:pageopacity="0.0"
     inkscape:pageshadow="2"
     inkscape:zoom="1"
     inkscape:cx="466"
     inkscape:cy="489.5"
     inkscape:document-units="px"
     inkscape:current-layer="layer1"
     showgrid="false"
     showguides="true"
     inkscape:window-width="1920"
     inkscape:window-height="1009"
     inkscape:window-x="-8"
     inkscape:window-y="-8"
     inkscape:window-maximized="1"
     showborder="true"
     inkscape:showpageshadow="false"
     inkscape:pagecheckerboard="0"
     inkscape:deskcolor="#d1d1d1">
    <sodipodi:guide
       id="guide_baseline"
       inkscape:label="baseline"
       position="0,253"
       orientation="0,1"
       inkscape:locked="false" />
    <sodipodi:guide
       id="guide_ascender"
       inkscape:label="ascender"
       position="0,945"
       orientation="0,1"
       inkscape:locked="false" />
    <sodipodi:guide
       id="guide_caps"
       inkscape:label="caps"
       position="0,896"
       orientation="0,1"
       inkscape:locked="false" />
    <sodipodi:guide
       id="guide_xheight"
       inkscape:label="xheight"
       position="0,729"
       orientation="0,1"
       inkscape:locked="false" />
    <sodipodi:guide
       id="guide_descender"
       inkscape:label="descender"
       position="0,28"
       orientation="0,1"
       inkscape:locked="false" />
  </sodipodi:namedview>
  <defs
     id="defs4" />
  <metadata
     id="metadata7">
    <rdf:RDF>
      <cc:Work
         rdf:about="">
        <dc:format>image/svg+xml</dc:format>
        <dc:type
           rdf:resource="http://purl.org/dc/dcmitype/StillImage" />
      </cc:Work>
    </rdf:RDF>
  </metadata>
  <g
     id="layer1"
     inkscape:groupmode="layer"
     inkscape:label="Layer 1">
    <path
       id="text2"
       style="font-size:688.982px;line-height:0;font-family:'Sans Serif Collection';-inkscape-font-specification:'Sans Serif Collection';letter-spacing:46.1372px;display:none;stroke-width:44.5298"
       d="m 521.53906,253 -23.57031,0.0547 -201.56836,457.23242 c -21.50178,4.21147 -38.17134,16.93785 -61.12695,17.4043 V 747 h 44.9414 8.82227 32.29883 75.58398 v -19.30859 l -62.82031,-11.60352 45.79883,-110.92773 h 216.55859 l 47.00586,112.52148 -54.19531,10.00977 V 747 h 107.88476 22.63282 31.13086 v -19.30859 c -16.47293,-0.33472 -29.70452,-6.9924 -43.8086,-12.28321 z m -27.28125,72.32617 98.80078,254.83594 H 386.42578 Z"
       inkscape:label="A" />
    <path
       id="text7"
       style="font-size:698.724px;line-height:0;font-family:'Sans Serif Collection';-inkscape-font-specification:'Sans Serif Collection';letter-spacing:46.7895px;stroke-width:46.7895"
       d="M 249.06445 248.11133 L 249.08008 263.51172 C 288.67105 268.94739 312.45146 289.6279 325.66797 320.49609 L 325.66797 674.61328 C 312.45146 705.48147 288.67105 726.16393 249.08008 731.59961 L 249.06445 747 L 463.58594 747 L 501.04883 747 C 554.61761 747 596.77375 734.65502 627.51758 709.9668 C 658.72722 685.27857 674.33203 650.34231 674.33203 605.1582 C 674.33203 579.53835 669.44032 558.57698 659.6582 542.27344 C 649.87608 525.96989 636.36799 513.39347 619.13281 504.54297 C 602.36345 495.69248 583.49686 489.40426 562.53516 485.67773 L 562.53516 482.18359 C 593.27899 476.59381 616.80388 464.24883 633.10742 445.15039 C 649.41097 425.58614 657.5625 401.13154 657.5625 371.78516 C 657.5625 326.60105 641.49089 294.69317 609.34961 276.06055 C 577.20834 257.42793 530.16245 248.11133 468.20898 248.11133 L 463.58594 248.11133 L 325.66797 248.11133 L 249.06445 248.11133 z M 414.85938 301.91211 L 471.00391 301.91211 C 513.39311 301.91211 544.13593 307.96887 563.23438 320.08008 C 582.79863 331.72547 592.58008 351.28837 592.58008 378.77148 C 592.58008 405.78879 584.42854 426.2853 568.125 440.25977 C 552.28727 453.76842 523.17436 460.52344 480.78516 460.52344 L 388.55273 460.52344 L 388.55273 320.49609 L 388.55469 320.49609 C 389.73201 307.5522 400.09612 303.31091 414.85938 301.91211 z M 388.55273 496.67773 L 484.2793 496.67773 C 530.39503 496.67773 562.30291 521.07927 580.00391 537.38281 C 598.17072 553.22055 607.25391 574.18191 607.25391 600.26758 C 607.25391 628.21651 598.63556 650.80975 581.40039 668.04492 C 564.16522 685.28009 533.4224 693.89648 489.16992 693.89648 L 438.86133 693.89648 C 412.24732 693.89648 390.30224 693.82637 388.55469 674.61328 L 388.55273 674.61328 L 388.55273 496.67773 z " />
  </g>
</svg>
