<?xml version="1.0" encoding="UTF-8" standalone="no"?>
<!-- Created with Inkscape (http://www.inkscape.org/) -->

<svg
   height="1000"
   width="1000"
   sodipodi:docname="D.svg"
   version="1.1"
   id="svg1"
   inkscape:version="1.3 (0e150ed6c4, 2023-07-21)"
   xmlns:inkscape="http://www.inkscape.org/namespaces/inkscape"
   xmlns:sodipodi="http://sodipodi.sourceforge.net/DTD/sodipodi-0.dtd"
   xmlns="http://www.w3.org/2000/svg"
   xmlns:svg="http://www.w3.org/2000/svg"
   xmlns:rdf="http://www.w3.org/1999/02/22-rdf-syntax-ns#"
   xmlns:cc="http://creativecommons.org/ns#"
   xmlns:dc="http://purl.org/dc/elements/1.1/">
  <sodipodi:namedview
     id="base"
     pagecolor="#ffffff"
     bordercolor="#000000"
     borderopacity="0.3"
     inkscape:pageopacity="0.0"
     inkscape:pageshadow="2"
     inkscape:zoom="1.1752115"
     inkscape:cx="501.18639"
     inkscape:cy="451.40812"
     inkscape:document-units="px"
     inkscape:current-layer="layer1"
     showgrid="false"
     showguides="true"
     inkscape:window-width="1920"
     inkscape:window-height="1009"
     inkscape:window-x="-8"
     inkscape:window-y="-8"
     inkscape:window-maximized="1"
     showborder="true"
     inkscape:showpageshadow="false"
     inkscape:pagecheckerboard="0"
     inkscape:deskcolor="#d1d1d1">
    <sodipodi:guide
       id="guide_baseline"
       inkscape:label="baseline"
       position="0,253"
       orientation="0,1"
       inkscape:locked="false" />
    <sodipodi:guide
       id="guide_ascender"
       inkscape:label="ascender"
       position="0,945"
       orientation="0,1"
       inkscape:locked="false" />
    <sodipodi:guide
       id="guide_caps"
       inkscape:label="caps"
       position="0,896"
       orientation="0,1"
       inkscape:locked="false" />
    <sodipodi:guide
       id="guide_xheight"
       inkscape:label="xheight"
       position="0,729"
       orientation="0,1"
       inkscape:locked="false" />
    <sodipodi:guide
       id="guide_descender"
       inkscape:label="descender"
       position="0,28"
       orientation="0,1"
       inkscape:locked="false" />
  </sodipodi:namedview>
  <defs
     id="defs4" />
  <metadata
     id="metadata7">
    <rdf:RDF>
      <cc:Work
         rdf:about="">
        <dc:format>image/svg+xml</dc:format>
        <dc:type
           rdf:resource="http://purl.org/dc/dcmitype/StillImage" />
      </cc:Work>
    </rdf:RDF>
  </metadata>
  <g
     id="layer1"
     inkscape:groupmode="layer"
     inkscape:label="Layer 1">
    <path
       id="text2"
       style="font-size:688.982px;line-height:0;font-family:'Sans Serif Collection';-inkscape-font-specification:'Sans Serif Collection';letter-spacing:46.1372px;display:none;stroke-width:44.8484"
       d="m 528.64782,249.46607 -23.73893,0.0551 -203.01032,460.50333 c -21.6556,4.24159 -38.44441,17.05902 -61.56423,17.5288 V 747 h 45.26289 8.88539 32.52988 76.12469 v -19.44672 l -63.26971,-11.68653 46.12646,-111.72127 h 218.10778 l 47.34212,113.32643 -54.58299,10.08137 V 747 h 108.65653 22.79472 31.35356 v -19.44672 c -16.59077,-0.33711 -29.91702,-7.04242 -44.12199,-12.37108 z m -27.47642,72.84357 99.50758,256.65896 h -208.111 z"
       inkscape:label="A"
       sodipodi:insensitive="true" />
    <path
       id="text7"
       style="font-size:698.724px;line-height:0;font-family:'Sans Serif Collection';-inkscape-font-specification:'Sans Serif Collection';letter-spacing:46.7895px;display:none;opacity:0.498789;fill:#000000;fill-opacity:1;stroke-width:46.7895"
       d="m 287.36621,248.11133 0.0156,15.40039 c 39.59097,5.43567 63.37138,26.11618 76.58789,56.98437 v 354.11719 c -13.21651,30.86819 -36.99692,51.55065 -76.58789,56.98633 L 287.36621,747 h 214.52149 37.46289 c 53.56878,0 95.72492,-12.34498 126.46875,-37.0332 31.20964,-24.68823 46.81445,-59.62449 46.81445,-104.8086 0,-25.61985 -4.89171,-46.58122 -14.67383,-62.88476 -9.78212,-16.30355 -23.29021,-28.87997 -40.52539,-37.73047 -16.76936,-8.85049 -35.63595,-15.13871 -56.59765,-18.86524 v -3.49414 c 30.74383,-5.58978 54.26872,-17.93476 70.57226,-37.0332 16.30355,-19.56425 24.45508,-44.01885 24.45508,-73.36523 0,-45.18411 -16.07161,-77.09199 -48.21289,-95.72461 C 615.5101,257.42793 568.46421,248.11133 506.51074,248.11133 H 501.8877 363.96973 Z m 165.79493,53.80078 h 56.14453 c 42.3892,0 73.13202,6.05676 92.23047,18.16797 19.56425,11.64539 29.3457,31.20829 29.3457,58.6914 0,27.01731 -8.15154,47.51382 -24.45508,61.48829 -15.83773,13.50865 -44.95064,20.26367 -87.33984,20.26367 H 426.85449 V 320.49609 h 0.002 c 1.17732,-12.94389 11.54143,-17.18518 26.30469,-18.58398 z m -26.30665,194.76562 h 95.72657 c 46.11573,0 78.02361,24.40154 95.72461,40.70508 18.16681,15.83774 27.25,36.7991 27.25,62.88477 0,27.94893 -8.61835,50.54217 -25.85352,67.77734 -17.23517,17.23517 -47.97799,25.85156 -92.23047,25.85156 h -50.30859 c -26.61401,0 -48.55909,-0.0701 -50.30664,-19.2832 h -0.002 z"
       inkscape:label="B"
       sodipodi:insensitive="true" />
    <path
       d="m 497.54291,799.93563 c -47.56739,0 -87.68736,-11.05101 -120.35991,-33.15302 -32.67255,-22.10202 -57.4172,-52.85266 -74.23395,-92.25191 -16.33627,-39.87973 -24.50441,-86.48617 -24.50441,-139.8193 0,-51.89169 8.64861,-97.53717 25.94584,-136.93642 17.77771,-39.87973 43.72356,-70.8706 77.83755,-92.97262 34.11399,-22.5825 76.63635,-33.87375 127.56709,-33.87375 49.00883,0 57.30619,1.97799 83.13658,12.83931 3.35357,1.41013 15.98767,-21.9725 15.98767,-21.9725 l 23.96438,0.0698 0.37589,89.78377 -0.0785,50.17816 c 0,0 -9.18529,0.2721 -26.963,0.2721 0,-14.89484 -2.64263,-29.3092 -7.9279,-43.24308 -5.28527,-14.41436 -14.17412,-26.18609 -26.66656,-35.31518 -12.01197,-9.60958 -42.12894,-14.41437 -63.27001,-14.41437 -54.29409,0 -92.97262,19.69963 -116.0356,59.09888 -22.58249,38.91877 -33.87374,94.41406 -33.87374,166.48586 0,43.24309 5.04502,81.2009 15.13507,113.87345 10.57053,32.67255 26.66657,58.13792 48.28811,76.39611 22.10202,18.25819 50.93074,27.38729 86.48616,27.38729 35.07495,0 62.46223,-6.00598 82.16186,-18.01795 20.1801,-12.49245 36.27613,-26.90681 48.2881,-43.24309 11.30286,7.06428 23.80956,14.6358 23.80956,14.6358 6.57482,5.34196 -16.12967,46.36891 -25.20672,53.8256 -12.70545,10.43738 -28.58839,21.48369 -52.65669,28.11482 -22.58249,8.16813 -51.65145,12.2522 -87.20688,12.2522 z"
       id="text9"
       style="font-size:720.718px;line-height:0;font-family:Serif;-inkscape-font-specification:Serif;letter-spacing:48.2623px;display:none;opacity:1;fill:#000000;fill-opacity:1;stroke-width:48.2623"
       transform="scale(1.0708644,0.93382505)"
       aria-label="C"
       sodipodi:nodetypes="sscsccsscccccccscsccscccscss"
       inkscape:label="C"
       sodipodi:insensitive="true" />
    <path
       d="M 312.83231,746.99994 V 718.0377 h 8.96451 q 23.44561,0 39.99546,-8.27492 16.54985,-8.9645 16.54985,-41.37462 V 330.49542 q 0,-30.34139 -17.23942,-38.61632 -16.54985,-8.27492 -39.30589,-8.27492 h -8.96451 v -28.96224 h 211.01057 q 106.19487,0 165.49849,64.13067 59.30363,64.13066 59.30363,181.35875 0,75.85348 -25.51435,131.01964 -24.82478,55.16616 -75.1639,85.50755 -49.64955,30.34139 -124.12387,30.34139 z m 135.1571,-35.16843 h 59.9932 q 82.05967,0 122.74471,-54.47658 41.37463,-55.16617 41.37463,-157.22357 0,-102.0574 -41.37463,-156.53398 -40.68504,-54.47659 -122.05513,-54.47659 h -60.68278 z"
       id="text10"
       style="font-size:689.577px;line-height:0;font-family:Serif;-inkscape-font-specification:Serif;letter-spacing:46.177px;stroke-width:46.177"
       aria-label="D"
       inkscape:label="D" />
  </g>
</svg>
