<?xml version="1.0" encoding="UTF-8" standalone="no"?>
<!-- Created with Inkscape (http://www.inkscape.org/) -->

<svg
   height="1000"
   width="1000"
   sodipodi:docname="O.svg"
   version="1.1"
   id="svg1"
   inkscape:version="1.3 (0e150ed6c4, 2023-07-21)"
   xmlns:inkscape="http://www.inkscape.org/namespaces/inkscape"
   xmlns:sodipodi="http://sodipodi.sourceforge.net/DTD/sodipodi-0.dtd"
   xmlns="http://www.w3.org/2000/svg"
   xmlns:svg="http://www.w3.org/2000/svg"
   xmlns:rdf="http://www.w3.org/1999/02/22-rdf-syntax-ns#"
   xmlns:cc="http://creativecommons.org/ns#"
   xmlns:dc="http://purl.org/dc/elements/1.1/">
  <sodipodi:namedview
     id="base"
     pagecolor="#ffffff"
     bordercolor="#000000"
     borderopacity="0.3"
     inkscape:pageopacity="0.0"
     inkscape:pageshadow="2"
     inkscape:zoom="0.831"
     inkscape:cx="310.46931"
     inkscape:cy="532.49097"
     inkscape:document-units="px"
     inkscape:current-layer="layer1"
     showgrid="false"
     showguides="true"
     inkscape:window-width="1920"
     inkscape:window-height="1009"
     inkscape:window-x="-8"
     inkscape:window-y="-8"
     inkscape:window-maximized="1"
     showborder="true"
     inkscape:showpageshadow="false"
     inkscape:pagecheckerboard="0"
     inkscape:deskcolor="#d1d1d1">
    <sodipodi:guide
       id="guide_baseline"
       inkscape:label="baseline"
       position="0,253"
       orientation="0,1"
       inkscape:locked="false" />
    <sodipodi:guide
       id="guide_ascender"
       inkscape:label="ascender"
       position="0,945"
       orientation="0,1"
       inkscape:locked="false" />
    <sodipodi:guide
       id="guide_caps"
       inkscape:label="caps"
       position="0,896"
       orientation="0,1"
       inkscape:locked="false" />
    <sodipodi:guide
       id="guide_xheight"
       inkscape:label="xheight"
       position="0,729"
       orientation="0,1"
       inkscape:locked="false" />
    <sodipodi:guide
       id="guide_descender"
       inkscape:label="descender"
       position="0,28"
       orientation="0,1"
       inkscape:locked="false" />
  </sodipodi:namedview>
  <defs
     id="defs4">
    <inkscape:path-effect
       effect="fillet_chamfer"
       id="path-effect6"
       is_visible="true"
       lpeversion="1"
       nodesatellites_param="F,0,0,1,0,0,0,1 @ F,0,0,1,0,0,0,1 @ F,0,0,1,0,0,0,1 @ F,0,0,1,0,0,0,1 @ F,0,0,1,0,0,0,1 @ F,0,0,1,0,0,0,1"
       radius="0"
       unit="px"
       method="auto"
       mode="F"
       chamfer_steps="1"
       flexible="false"
       use_knot_distance="true"
       apply_no_radius="true"
       apply_with_radius="true"
       only_selected="false"
       hide_knots="false" />
    <inkscape:path-effect
       effect="fillet_chamfer"
       id="path-effect5"
       is_visible="true"
       lpeversion="1"
       nodesatellites_param="F,0,0,1,0,0,0,1 @ F,0,0,1,0,0,0,1 @ F,0,0,1,0,0,0,1 @ F,0,0,1,0,0,0,1"
       radius="0"
       unit="px"
       method="auto"
       mode="F"
       chamfer_steps="1"
       flexible="false"
       use_knot_distance="true"
       apply_no_radius="true"
       apply_with_radius="true"
       only_selected="false"
       hide_knots="false" />
    <inkscape:path-effect
       effect="fillet_chamfer"
       id="path-effect4"
       is_visible="true"
       lpeversion="1"
       nodesatellites_param="F,0,0,1,0,0,0,1 @ F,0,0,1,0,51.135274,0,1 @ F,0,0,1,0,0,0,1 @ F,0,0,1,0,0,0,1 @ F,0,0,1,0,0,0,1 @ F,0,0,1,0,0,0,1 @ F,0,0,1,0,0,0,1 @ F,0,0,1,0,0,0,1 @ F,0,0,1,0,0,0,1 @ F,0,0,1,0,0,0,1 @ F,0,0,1,0,0,0,1 @ F,0,0,1,0,0,0,1"
       radius="0"
       unit="px"
       method="auto"
       mode="F"
       chamfer_steps="1"
       flexible="false"
       use_knot_distance="true"
       apply_no_radius="true"
       apply_with_radius="true"
       only_selected="false"
       hide_knots="false" />
  </defs>
  <metadata
     id="metadata7">
    <rdf:RDF>
      <cc:Work
         rdf:about="">
        <dc:format>image/svg+xml</dc:format>
        <dc:type
           rdf:resource="http://purl.org/dc/dcmitype/StillImage" />
      </cc:Work>
    </rdf:RDF>
  </metadata>
  <g
     id="layer1"
     inkscape:groupmode="layer"
     inkscape:label="Layer 1">
    <path
       id="text2"
       style="font-size:688.982px;line-height:0;font-family:'Sans Serif Collection';-inkscape-font-specification:'Sans Serif Collection';letter-spacing:46.1372px;display:none;stroke-width:44.8484"
       d="m 528.64782,249.46607 -23.73893,0.0551 -203.01032,460.50333 c -21.6556,4.24159 -38.44441,17.05902 -61.56423,17.5288 V 747 h 45.26289 8.88539 32.52988 76.12469 v -19.44672 l -63.26971,-11.68653 46.12646,-111.72127 h 218.10778 l 47.34212,113.32643 -54.58299,10.08137 V 747 h 108.65653 22.79472 31.35356 v -19.44672 c -16.59077,-0.33711 -29.91702,-7.04242 -44.12199,-12.37108 z m -27.47642,72.84357 99.50758,256.65896 h -208.111 z"
       inkscape:label="A"
       sodipodi:insensitive="true" />
    <path
       id="text7"
       style="font-size:698.724px;line-height:0;font-family:'Sans Serif Collection';-inkscape-font-specification:'Sans Serif Collection';letter-spacing:46.7895px;display:none;opacity:1;fill:#000000;fill-opacity:1;stroke-width:46.7895"
       d="m 287.36621,248.11133 0.0156,15.40039 c 39.59097,5.43567 63.37138,26.11618 76.58789,56.98437 v 354.11719 c -13.21651,30.86819 -36.99692,51.55065 -76.58789,56.98633 L 287.36621,747 h 214.52149 37.46289 c 53.56878,0 95.72492,-12.34498 126.46875,-37.0332 31.20964,-24.68823 46.81445,-59.62449 46.81445,-104.8086 0,-25.61985 -4.89171,-46.58122 -14.67383,-62.88476 -9.78212,-16.30355 -23.29021,-28.87997 -40.52539,-37.73047 -16.76936,-8.85049 -35.63595,-15.13871 -56.59765,-18.86524 v -3.49414 c 30.74383,-5.58978 54.26872,-17.93476 70.57226,-37.0332 16.30355,-19.56425 24.45508,-44.01885 24.45508,-73.36523 0,-45.18411 -16.07161,-77.09199 -48.21289,-95.72461 C 615.5101,257.42793 568.46421,248.11133 506.51074,248.11133 H 501.8877 363.96973 Z m 165.79493,53.80078 h 56.14453 c 42.3892,0 73.13202,6.05676 92.23047,18.16797 19.56425,11.64539 29.3457,31.20829 29.3457,58.6914 0,27.01731 -8.15154,47.51382 -24.45508,61.48829 -15.83773,13.50865 -44.95064,20.26367 -87.33984,20.26367 H 426.85449 V 320.49609 h 0.002 c 1.17732,-12.94389 11.54143,-17.18518 26.30469,-18.58398 z m -26.30665,194.76562 h 95.72657 c 46.11573,0 78.02361,24.40154 95.72461,40.70508 18.16681,15.83774 27.25,36.7991 27.25,62.88477 0,27.94893 -8.61835,50.54217 -25.85352,67.77734 -17.23517,17.23517 -47.97799,25.85156 -92.23047,25.85156 h -50.30859 c -26.61401,0 -48.55909,-0.0701 -50.30664,-19.2832 h -0.002 z"
       inkscape:label="B"
       sodipodi:insensitive="true" />
    <path
       d="m 497.54291,799.93563 c -47.56739,0 -87.68736,-11.05101 -120.35991,-33.15302 -32.67255,-22.10202 -57.4172,-52.85266 -74.23395,-92.25191 -16.33627,-39.87973 -24.50441,-86.48617 -24.50441,-139.8193 0,-51.89169 8.64861,-97.53717 25.94584,-136.93642 17.77771,-39.87973 43.72356,-70.8706 77.83755,-92.97262 34.11399,-22.5825 76.63635,-33.87375 127.56709,-33.87375 49.00883,0 57.30619,1.97799 83.13658,12.83931 3.35357,1.41013 15.98767,-21.9725 15.98767,-21.9725 l 23.96438,0.0698 0.37589,89.78377 -0.0785,50.17816 c 0,0 -9.18529,0.2721 -26.963,0.2721 0,-14.89484 -2.64263,-29.3092 -7.9279,-43.24308 -5.28527,-14.41436 -14.17412,-26.18609 -26.66656,-35.31518 -12.01197,-9.60958 -42.12894,-14.41437 -63.27001,-14.41437 -54.29409,0 -92.97262,19.69963 -116.0356,59.09888 -22.58249,38.91877 -33.87374,94.41406 -33.87374,166.48586 0,43.24309 5.04502,81.2009 15.13507,113.87345 10.57053,32.67255 26.66657,58.13792 48.28811,76.39611 22.10202,18.25819 50.93074,27.38729 86.48616,27.38729 35.07495,0 62.46223,-6.00598 82.16186,-18.01795 20.1801,-12.49245 36.27613,-26.90681 48.2881,-43.24309 11.30286,7.06428 23.80956,14.6358 23.80956,14.6358 6.57482,5.34196 -16.12967,46.36891 -25.20672,53.8256 -12.70545,10.43738 -28.58839,21.48369 -52.65669,28.11482 -22.58249,8.16813 -51.65145,12.2522 -87.20688,12.2522 z"
       id="text9"
       style="font-size:720.718px;line-height:0;font-family:Serif;-inkscape-font-specification:Serif;letter-spacing:48.2623px;display:none;opacity:1;fill:#000000;fill-opacity:1;stroke-width:48.2623"
       transform="scale(1.0708644,0.93382505)"
       aria-label="C"
       sodipodi:nodetypes="sscsccsscccccccscsccscccscss"
       inkscape:label="C"
       sodipodi:insensitive="true" />
    <path
       d="M 312.83231,746.99994 V 718.0377 h 8.96451 q 23.44561,0 39.99546,-8.27492 16.54985,-8.9645 16.54985,-41.37462 V 330.49542 q 0,-30.34139 -17.23942,-38.61632 -16.54985,-8.27492 -39.30589,-8.27492 h -8.96451 v -28.96224 h 211.01057 q 106.19487,0 165.49849,64.13067 59.30363,64.13066 59.30363,181.35875 0,75.85348 -25.51435,131.01964 -24.82478,55.16616 -75.1639,85.50755 -49.64955,30.34139 -124.12387,30.34139 z m 135.1571,-35.16843 h 59.9932 q 82.05967,0 122.74471,-54.47658 41.37463,-55.16617 41.37463,-157.22357 0,-102.0574 -41.37463,-156.53398 -40.68504,-54.47659 -122.05513,-54.47659 h -60.68278 z"
       id="text10"
       style="font-size:689.577px;line-height:0;font-family:Serif;-inkscape-font-specification:Serif;letter-spacing:46.177px;display:none;opacity:1;stroke-width:46.177"
       aria-label="D"
       inkscape:label="D"
       sodipodi:insensitive="true" />
    <path
       id="text11"
       style="font-size:689.577px;line-height:0;font-family:Serif;-inkscape-font-specification:Serif;letter-spacing:46.177px;display:none;opacity:1;stroke-width:46.177"
       inkscape:label="E"
       d="m 312.7793,254.64258 v 28.96094 h 8.96484 c 15.63039,0 28.96287,2.98851 39.99609,8.96484 11.03323,5.51661 16.54883,19.07882 16.54883,40.68555 v 338.58203 c 0,20.22757 -5.74534,33.10057 -17.23828,38.61718 -11.03322,5.05689 -24.13596,7.58399 -39.30664,7.58399 H 312.7793 V 747 h 369.61328 l 4.82812,-120.67578 h -35.85937 l -4.82617,29.65234 c -2.29859,15.17068 -8.50536,28.5012 -18.61914,39.99414 -9.65408,11.03323 -25.2839,16.55078 -46.89063,16.55078 H 447.9375 V 506.33789 h 137.42578 c 33.93998,0 42.78125,25.3736 42.78125,58.32617 h 22.40039 v -75.07031 -0.30078 -75.07227 h -22.40039 c 0,32.95257 -8.84127,58.32813 -42.78125,58.32813 H 447.9375 V 289.12109 h 115.84766 c 20.68729,0 35.39818,5.74534 44.13281,17.23829 9.19434,11.03322 14.71191,24.13596 16.55078,39.30664 l 3.44727,29.65234 h 35.85937 l -3.44922,-120.67578 z"
       sodipodi:nodetypes="ccscsscscccccccsccsccccccsccscccccc"
       sodipodi:insensitive="true" />
    <path
       d="m 325.00402,747 v -28.87949 h 8.9389 q 22.69103,0 39.19359,-7.56368 17.19018,-8.25128 17.19018,-38.50599 V 331.68538 q 0,-30.25471 -17.19018,-38.506 -16.50256,-8.25128 -39.19359,-8.25128 h -8.9389 v -28.87949 h 346.55393 l 3.43803,120.33122 h -35.75556 l -3.43803,-29.5671 q -2.75043,-23.37864 -17.19018,-39.88121 -13.75214,-16.50256 -46.06967,-16.50256 H 459.775 v 198.71842 h 165.71328 v 33.69274 H 459.775 V 668.6128 q 0,32.31753 16.50256,41.25642 16.50257,8.25129 39.88121,8.25129 H 538.8498 V 747 Z"
       id="text12"
       style="font-size:687.607px;line-height:0;font-family:Serif;-inkscape-font-specification:Serif;letter-spacing:46.0451px;display:none;stroke-width:46.0451"
       aria-label="F"
       inkscape:label="F"
       sodipodi:insensitive="true" />
    <path
       d="m 516.96097,747.00003 c -52.46595,0 -96.1122,-10.40273 -130.93873,-31.2082 -34.37425,-20.80546 -60.15493,-49.75219 -77.34205,-86.84019 -16.73483,-37.54029 -25.10224,-81.41268 -25.10224,-131.61717 0,-48.84761 8.81971,-91.81542 26.45912,-128.90342 18.09171,-37.54029 44.77697,-66.71317 80.0558,-87.51863 35.27883,-21.25776 78.92508,-31.88664 130.93873,-31.88664 28.67206,0 55.41565,2.80716 79.71146,8.77776 14.09336,3.46339 38.10095,-24.0342 38.10095,-24.0342 0,0 13.2425,-0.0481 20.33579,-0.0481 l -0.6288,99.79884 -0.3713,38.85494 c 0,0 -15.22482,0.12669 -32.86423,0.12669 0,-14.02107 -2.9399,-27.58986 -8.81971,-40.70635 -5.42751,-13.56878 -15.24072,-26.80303 -41.1983,-37.00404 -11.46186,-4.38279 -34.81727,-9.80825 -56.97961,-9.80825 -57.44117,0 -98.37366,18.544 -122.79746,55.632 -24.42381,36.63571 -36.63571,88.87551 -36.63571,156.71942 0,67.8439 12.66419,120.0837 37.99258,156.71941 25.32839,36.18341 68.97464,54.27512 130.93874,54.27512 13.11649,0 25.78068,-0.67844 37.99258,-2.03531 12.2119,-1.35688 23.06692,-3.3922 32.56507,-6.10596 v -109.2287 c 0,-19.90088 -5.65366,-32.56507 -16.96097,-37.99258 -10.85503,-5.42751 -23.74537,-8.14127 -38.67103,-8.14127 h -2.71375 v -28.49444 h 176.39414 v 28.49444 h -2.71375 c -13.11649,0 -24.19766,2.9399 -33.24351,8.81971 -9.04585,5.42751 -13.56878,18.77014 -13.56878,40.0279 v 122.11902 c -22.61464,10.40273 -45.90771,18.31786 -69.87922,23.74537 -23.97151,4.97522 -50.65678,7.46283 -80.05581,7.46283 z"
       id="text13"
       style="font-size:678.439px;line-height:0;font-family:Serif;-inkscape-font-specification:Serif;letter-spacing:45.4311px;display:none;stroke-width:45.4311"
       inkscape:label="G"
       aria-label="G"
       sodipodi:nodetypes="sccsccsscccccccscscsscscsccccscsccs"
       sodipodi:insensitive="true" />
    <path
       d="m 260.99988,747.00024 v -28.00001 h 8.66667 q 22.66668,0 38.66669,-8 16,-8.66667 16,-40.00002 V 344.33338 q 0,-29.33335 -16.66667,-37.33335 -16.00001,-8 -38.00002,-8 h -8.66667 v -28.00002 h 194.00009 v 28.00002 h -8.66667 q -22.66667,0 -38.66668,8.66667 -16.00001,8 -16.00001,39.33335 V 481.66678 H 608.33338 V 347.00005 q 0,-31.33335 -16,-39.33335 -16.00001,-8.66667 -38.66669,-8.66667 h -8.66667 v -28.00002 h 194.00009 v 28.00002 h -8.66667 q -22.66668,0 -38.66668,8.66667 -16.00001,8 -16.00001,39.33335 v 327.33349 q 0,29.33335 16.00001,37.33335 16.66667,7.33334 38.66668,7.33334 h 8.66667 v 28.00001 H 545.00002 v -28.00001 h 8.66667 q 22.66668,0 38.66669,-8 16,-8.66667 16,-40.00002 V 515.00013 H 391.66661 v 156.00008 q 0,31.33335 16.00001,40.00002 16.00001,8 38.66668,8 h 8.66667 v 28.00001 z"
       id="text14"
       style="font-size:666.667px;line-height:0;font-family:Serif;-inkscape-font-specification:Serif;letter-spacing:44.6428px;display:none;stroke-width:44.6428"
       aria-label="H"
       inkscape:label="H"
       sodipodi:insensitive="true" />
    <path
       d="m 402.99994,747 v -28.00001 h 8.66667 q 22.66668,0 38.66669,-8.00001 16.00001,-8.66667 16.00001,-40.00002 V 346.9998 q 0,-31.33334 -16.00001,-39.33335 -16.00001,-8.66667 -38.66669,-8.66667 h -8.66667 v -28.00001 h 194.0001 v 28.00001 h -8.66668 q -22.66667,0 -38.66668,8.66667 -16.00001,8.00001 -16.00001,39.33335 v 324.00016 q 0,31.33335 16.00001,40.00002 16.00001,8.00001 38.66668,8.00001 h 8.66668 V 747 Z"
       id="text15"
       style="font-size:666.667px;line-height:0;font-family:Serif;-inkscape-font-specification:Serif;letter-spacing:44.6429px;display:none;stroke-width:44.6429"
       inkscape:label="I"
       aria-label="I"
       sodipodi:insensitive="true" />
    <path
       d="m 415.21142,751.3248 v -27.77536 l -0.0665,-17.23094 6.13547,0.0263 5.28067,15.3996 c 3.13074,9.12993 19.58537,-1.02234 29.56441,-6.67713 9.97904,-5.32215 17.62964,-14.63592 22.95179,-27.94131 5.32215,-13.30539 7.98323,-31.76661 7.98323,-55.38367 V 325.8847 c 0,-14.63592 -4.15793,-23.94969 -12.4738,-27.94131 -7.98323,-3.99161 -17.46332,-5.98742 -28.44026,-5.98742 h -6.48638 v -20.95599 h 145.19503 v 20.95599 h -6.48637 c -11.30958,0 -20.95599,2.16212 -28.93922,6.48637 -7.98323,3.99162 -11.97485,13.80434 -11.97485,29.43817 v 303.36281 c 0,29.93712 -5.15584,53.22155 -15.46751,69.85328 -9.97904,16.96437 -23.61706,28.77291 -40.91406,35.4256 -16.96437,6.98533 -36.09086,10.47799 -57.37948,10.47799 l -2.12407,4.24268 z"
       id="text1"
       style="font-size:498.952px;line-height:0;font-family:Serif;-inkscape-font-specification:Serif;letter-spacing:33.4119px;display:none;stroke-width:33.4119"
       aria-label="J"
       sodipodi:nodetypes="ccccscssscsccccscssccscc"
       inkscape:label="J"
       sodipodi:insensitive="true" />
    <path
       d="m 275.33322,747 v -28.00001 h 8.66667 c 14.66668,0 27.33335,-2.44445 38.00002,-7.33334 11.11112,-5.33333 16.66668,-17.77778 16.66668,-37.33335 V 344.33314 c 0,-19.55557 -5.55556,-32.00002 -16.66668,-37.33335 -10.66667,-5.33334 -23.33334,-8.00001 -38.00002,-8.00001 h -8.66667 v -28.00001 h 194.0001 v 28.00001 h -8.66667 c -15.11112,0 -28.00002,2.88889 -38.66669,8.66667 -10.66667,5.33334 -16.00001,18.44446 -16.00001,39.33335 V 534.9999 L 544.00002,376.99982 c 14.22223,-16.44445 23.77779,-29.55557 28.66668,-39.33335 5.33334,-10.22223 8.00001,-18.44445 8.00001,-24.66668 0,-5.77778 -2.66667,-9.55556 -8.00001,-11.33334 -5.33333,-2.22223 -13.55556,-3.33334 -24.66668,-3.33334 v -27.33334 h 147.33341 v 27.33334 c -15.11112,0 -29.55557,5.77778 -43.33336,17.33335 -13.33334,11.11111 -28.66668,26.22223 -46.00002,45.33335 l -96.66671,108.66672 140.66673,196.0001 c 12.44445,17.33334 24.66668,30.66668 36.66669,40.00002 12.00001,8.88889 15.65143,12.65183 26.66848,18.4388 l 11.33154,5.95217 V 747 h -7.33334 c -22.22223,0 -40.66669,-0.88889 -55.33336,-2.66667 -14.22223,-1.77778 -26.22223,-4.88889 -36.00002,-9.33334 -9.33334,-4.44445 -17.77779,-10.44445 -25.33334,-18 -7.11112,-8.00001 -14.8889,-18.00001 -23.33335,-30.00002 l -114.66672,-164.66675 -56.6667,46.00003 v 102.66671 c 0,20.8889 5.33334,34.22224 16.00001,40.00002 10.66667,5.33334 23.55557,8.00001 38.66669,8.00001 h 8.66667 V 747 Z"
       id="text3"
       style="font-size:666.667px;line-height:0;font-family:Serif;-inkscape-font-specification:Serif;letter-spacing:44.6427px;display:none;stroke-width:44.6427"
       inkscape:label="K"
       aria-label="K"
       sodipodi:nodetypes="ccscsscsccccscscccsccccccccccsccsccccccscsccc"
       sodipodi:insensitive="true" />
    <path
       id="rect3"
       style="display:none;fill:#000000;stroke-width:5"
       d="m 328.24023,271 v 23.13867 c 46.24329,0.60891 55.86915,27.582 55.86915,51.44531 v 331.98829 a 52.716652,52.716652 0 0 1 -51.11133,52.6914 l -9.50782,0.29102 L 323.64062,747 h 60.46876 68 198.67968 l 2.40625,-112.75781 h -22.86523 c 0,0 -7.11003,78.82226 -64.50196,78.82226 H 452.10938 V 345.58398 c -10e-6,-23.62937 9.62782,-51.44531 55.87109,-51.44531 V 271 h -55.87109 -68 z"
       inkscape:label="L"
       sodipodi:insensitive="true" />
    <path
       d="m 206.72076,747 v -27.99999 h 8.9912 c 15.21587,0 28.35684,-2.44445 39.42293,-7.33334 11.52717,-5.33333 17.29076,-17.77778 17.29076,-37.33333 v -330 c 10e-6,-19.55556 -5.76358,-32.00001 -17.29076,-37.33334 -11.06609,-5.33333 -24.20706,-7.99999 -39.42293,-7.99999 h -8.9912 V 271 H 364.41251 L 507.58001,652.33334 649.36426,271 h 143.91498 v 28.00001 h -8.99119 c -15.67695,0 -29.04847,2.88889 -40.11456,8.66666 C 733.1074,313.00001 727.57435,326.11112 727.57435,347 v 323.99999 c 0,20.88889 5.53305,34.22223 16.59914,40.00001 11.06609,5.33334 24.43761,8.00001 40.11456,8.00001 h 8.99119 V 747 H 618.93251 v -27.99999 h 2.07489 c 14.75478,0 26.5125,-2.44445 35.27316,-7.33334 8.76065,-4.88889 13.60206,-16.44444 14.52423,-34.66666 V 321 L 512.42141,747 H 475.07337 L 314.61511,322.33334 v 348.66665 c 0,20.88889 4.38032,34.22223 13.14097,40.00001 8.76066,5.33334 20.97947,8.00001 36.65643,8.00001 h 2.07488 V 747 Z"
       id="text6"
       style="font-size:666.667px;line-height:0;font-family:Serif;-inkscape-font-specification:Serif;letter-spacing:44.6428px;display:none;stroke-width:45.471"
       aria-label="M"
       inkscape:label="M"
       sodipodi:nodetypes="ccscsccscccccccscsscsccccsscccccscsccc"
       sodipodi:insensitive="true" />
    <path
       d="m 252.16008,747 v -30.97819 h 9.2451 c 16.11967,0 29.86881,-2.66666 41.2474,-8 C 314.03117,702.24403 319.72046,691.88889 319.72046,671 V 347.94345 c 0,-19.55556 -5.92635,-32 -17.77905,-37.33334 -11.37859,-5.33334 -24.89067,-8 -40.53623,-8 h -9.2451 V 271 H 382.3027 L 636.89865,639.66666 V 349.7485 c 0,-19.55555 -5.92635,-32 -17.77904,-37.33334 -11.37859,-5.33333 -24.89066,-8 -40.53623,-8 h -9.2451 V 271 h 178.50164 v 33.41516 h -9.24512 c -16.11966,0 -29.86879,2.88889 -41.24738,8.66666 -11.37859,5.33335 -17.06789,18.44446 -17.06789,39.33334 V 747 H 629.78704 L 363.10133,362.99999 V 671 c 0,20.88889 5.6893,31.24403 17.06789,37.02181 11.37859,5.33334 25.12772,8 41.24739,8 h 9.24511 V 747 Z"
       id="text8"
       style="font-size:666.667px;line-height:0;font-family:Serif;-inkscape-font-specification:Serif;letter-spacing:44.6428px;display:none;stroke-width:46.1086"
       aria-label="N"
       sodipodi:nodetypes="ccscsscsccccscsccccscscccscsccc"
       inkscape:label="N"
       sodipodi:insensitive="true" />
    <path
       d="m 500.3761,747.00002 q -79.73425,0 -132.38894,-29.79048 Q 315.33247,687.41907 289.00513,633.66669 263.43,579.91431 263.43,508.02861 q 0,-71.8857 25.57513,-124.99046 26.32734,-53.10476 78.98203,-82.24761 53.40691,-29.79048 133.14115,-29.79048 75.22099,0 127.87568,29.79048 52.65469,29.14285 79.73425,82.89523 27.83176,53.10475 27.83176,124.99046 0,71.88571 -27.83176,125.63809 -27.07956,53.10475 -79.73425,82.89522 -52.65469,29.79048 -128.62789,29.79048 z m 0,-34.97143 q 84.24751,0 118.09695,-53.75238 34.60166,-53.75237 34.60166,-149.59998 0,-95.84761 -34.60166,-148.95237 -33.84944,-53.75237 -117.34474,-53.75237 -84.24751,0 -119.60136,53.75237 -34.60166,53.10476 -34.60166,148.95237 0,95.84761 34.60166,149.59998 35.35385,53.75238 118.84915,53.75238 z"
       id="text16"
       style="font-size:697.958px;line-height:0;font-family:Serif;-inkscape-font-specification:Serif;letter-spacing:46.7382px;stroke-width:46.7382"
       aria-label="O"
       inkscape:label="O" />
  </g>
</svg>
