<?xml version="1.0" encoding="UTF-8" standalone="no"?>
<!-- Created with Inkscape (http://www.inkscape.org/) -->

<svg
   height="1000"
   width="1000"
   sodipodi:docname="Alphabet.svg"
   version="1.1"
   id="svg1"
   inkscape:version="1.3 (0e150ed6c4, 2023-07-21)"
   xmlns:inkscape="http://www.inkscape.org/namespaces/inkscape"
   xmlns:sodipodi="http://sodipodi.sourceforge.net/DTD/sodipodi-0.dtd"
   xmlns="http://www.w3.org/2000/svg"
   xmlns:svg="http://www.w3.org/2000/svg"
   xmlns:rdf="http://www.w3.org/1999/02/22-rdf-syntax-ns#"
   xmlns:cc="http://creativecommons.org/ns#"
   xmlns:dc="http://purl.org/dc/elements/1.1/">
  <sodipodi:namedview
     id="base"
     pagecolor="#ffffff"
     bordercolor="#000000"
     borderopacity="0.3"
     inkscape:pageopacity="0.0"
     inkscape:pageshadow="2"
     inkscape:zoom="0.70710678"
     inkscape:cx="422.84985"
     inkscape:cy="504.16713"
     inkscape:document-units="px"
     inkscape:current-layer="layer1"
     showgrid="false"
     showguides="true"
     inkscape:window-width="1920"
     inkscape:window-height="1009"
     inkscape:window-x="-8"
     inkscape:window-y="-8"
     inkscape:window-maximized="1"
     showborder="true"
     inkscape:showpageshadow="false"
     inkscape:pagecheckerboard="0"
     inkscape:deskcolor="#d1d1d1">
    <sodipodi:guide
       id="guide_baseline"
       inkscape:label="baseline"
       position="0,253"
       orientation="0,1"
       inkscape:locked="false" />
    <sodipodi:guide
       id="guide_ascender"
       inkscape:label="ascender"
       position="0,945"
       orientation="0,1"
       inkscape:locked="false" />
    <sodipodi:guide
       id="guide_caps"
       inkscape:label="caps"
       position="0,896"
       orientation="0,1"
       inkscape:locked="false" />
    <sodipodi:guide
       id="guide_xheight"
       inkscape:label="xheight"
       position="0,729"
       orientation="0,1"
       inkscape:locked="false" />
    <sodipodi:guide
       id="guide_descender"
       inkscape:label="descender"
       position="0,28"
       orientation="0,1"
       inkscape:locked="false" />
  </sodipodi:namedview>
  <defs
     id="defs4">
    <inkscape:path-effect
       effect="fillet_chamfer"
       id="path-effect29"
       is_visible="true"
       lpeversion="1"
       nodesatellites_param="F,0,0,1,0,0,0,1 @ F,0,0,1,0,0,0,1 @ F,0,0,1,0,0,0,1 @ F,0,0,1,0,0,0,1 @ F,0,0,1,0,0,0,1"
       radius="0"
       unit="px"
       method="auto"
       mode="F"
       chamfer_steps="1"
       flexible="false"
       use_knot_distance="true"
       apply_no_radius="true"
       apply_with_radius="true"
       only_selected="false"
       hide_knots="false" />
    <inkscape:path-effect
       effect="fillet_chamfer"
       id="path-effect27"
       is_visible="true"
       lpeversion="1"
       nodesatellites_param="F,0,0,1,0,0,0,1 @ F,0,0,1,0,0,0,1 @ F,0,0,1,0,0,0,1 @ F,0,0,1,0,0,0,1 @ F,0,0,1,0,0,0,1"
       radius="0"
       unit="px"
       method="auto"
       mode="F"
       chamfer_steps="1"
       flexible="false"
       use_knot_distance="true"
       apply_no_radius="true"
       apply_with_radius="true"
       only_selected="false"
       hide_knots="false" />
    <inkscape:path-effect
       effect="fillet_chamfer"
       id="path-effect6"
       is_visible="true"
       lpeversion="1"
       nodesatellites_param="F,0,0,1,0,0,0,1 @ F,0,0,1,0,0,0,1 @ F,0,0,1,0,0,0,1 @ F,0,0,1,0,0,0,1 @ F,0,0,1,0,0,0,1 @ F,0,0,1,0,0,0,1"
       radius="0"
       unit="px"
       method="auto"
       mode="F"
       chamfer_steps="1"
       flexible="false"
       use_knot_distance="true"
       apply_no_radius="true"
       apply_with_radius="true"
       only_selected="false"
       hide_knots="false" />
    <inkscape:path-effect
       effect="fillet_chamfer"
       id="path-effect5"
       is_visible="true"
       lpeversion="1"
       nodesatellites_param="F,0,0,1,0,0,0,1 @ F,0,0,1,0,0,0,1 @ F,0,0,1,0,0,0,1 @ F,0,0,1,0,0,0,1"
       radius="0"
       unit="px"
       method="auto"
       mode="F"
       chamfer_steps="1"
       flexible="false"
       use_knot_distance="true"
       apply_no_radius="true"
       apply_with_radius="true"
       only_selected="false"
       hide_knots="false" />
    <inkscape:path-effect
       effect="fillet_chamfer"
       id="path-effect4"
       is_visible="true"
       lpeversion="1"
       nodesatellites_param="F,0,0,1,0,0,0,1 @ F,0,0,1,0,51.135274,0,1 @ F,0,0,1,0,0,0,1 @ F,0,0,1,0,0,0,1 @ F,0,0,1,0,0,0,1 @ F,0,0,1,0,0,0,1 @ F,0,0,1,0,0,0,1 @ F,0,0,1,0,0,0,1 @ F,0,0,1,0,0,0,1 @ F,0,0,1,0,0,0,1 @ F,0,0,1,0,0,0,1 @ F,0,0,1,0,0,0,1"
       radius="0"
       unit="px"
       method="auto"
       mode="F"
       chamfer_steps="1"
       flexible="false"
       use_knot_distance="true"
       apply_no_radius="true"
       apply_with_radius="true"
       only_selected="false"
       hide_knots="false" />
  </defs>
  <metadata
     id="metadata7">
    <rdf:RDF>
      <cc:Work
         rdf:about="">
        <dc:format>image/svg+xml</dc:format>
        <dc:type
           rdf:resource="http://purl.org/dc/dcmitype/StillImage" />
      </cc:Work>
    </rdf:RDF>
  </metadata>
  <g
     inkscape:groupmode="layer"
     id="layer2"
     inkscape:label="Uppercase"
     sodipodi:insensitive="true"
     style="display:none">
    <path
       id="text2"
       style="font-size:688.982px;line-height:0;font-family:'Sans Serif Collection';-inkscape-font-specification:'Sans Serif Collection';letter-spacing:46.1372px;display:none;stroke-width:57.2392"
       d="m 536.56273,112.00583 -30.2976,0.0703 -259.09865,587.73264 c -27.63867,5.41347 -49.06595,21.77214 -78.57339,22.3717 v 24.8195 h 57.76826 11.34028 41.51733 97.15667 v -24.81952 l -80.75007,-14.91532 58.87042,-142.58797 h 278.36729 l 60.42195,144.63661 -69.66335,12.86668 v 24.81952 h 138.67649 29.09253 40.01601 v -24.81952 c -21.17452,-0.43023 -38.18259,-8.9881 -56.31215,-15.78898 z m -35.0677,92.96902 126.99985,327.56951 H 362.88632 Z"
       inkscape:label="A"
       sodipodi:insensitive="true" />
    <path
       id="text7"
       style="font-size:698.724px;line-height:0;font-family:'Sans Serif Collection';-inkscape-font-specification:'Sans Serif Collection';letter-spacing:46.7895px;display:none;opacity:1;fill:#000000;fill-opacity:1;stroke-width:59.7166"
       d="m 228.61907,110.2768 0.0199,19.65526 c 50.52929,6.93745 80.87982,33.33164 97.74783,72.72819 v 451.9538 c -16.86801,39.39655 -47.21854,65.79323 -97.74783,72.73069 L 228.61907,747 h 273.79017 47.81325 c 68.36894,0 122.17211,-15.75569 161.40994,-47.26484 39.83233,-31.50918 59.74849,-76.09773 59.74849,-133.76545 0,-32.69819 -6.24321,-59.45083 -18.72796,-80.25876 -12.48475,-20.80795 -29.7249,-36.85903 -51.72188,-48.15476 -21.40244,-11.29574 -45.48155,-19.32129 -72.23462,-24.0774 v -4.4595 c 39.23784,-7.13415 69.26225,-22.88984 90.0702,-47.26486 20.80794,-24.96952 31.21159,-56.18051 31.21159,-93.6348 0,-57.66772 -20.51192,-98.39121 -61.5333,-122.17171 C 647.42359,122.16742 587.37972,110.2768 508.30954,110.2768 h -5.9003 -176.02238 z m 211.60128,68.66504 h 71.65632 c 54.10063,0 93.33717,7.73013 117.7122,23.18747 24.96951,14.86281 37.45342,39.83061 37.45342,74.90684 0,34.48174 -10.40368,60.64109 -31.21162,78.47646 -20.21341,17.24087 -57.36974,25.86219 -111.47036,25.86219 H 406.64561 V 202.66025 h 0.002 c 1.50259,-16.52006 14.73012,-21.93315 33.57222,-23.71841 z m -33.57474,248.57607 h 122.17421 c 58.85674,0 99.58022,31.14327 122.17172,51.95121 23.18599,20.21344 34.77871,46.96607 34.77871,80.25877 0,35.67074 -10.99946,64.50612 -32.99641,86.50308 -21.99696,21.99695 -61.23351,32.99391 -117.7122,32.99391 h -64.20801 c -33.96701,0 -61.97515,-0.0895 -64.20551,-24.61083 h -0.002 z"
       inkscape:label="B"
       sodipodi:insensitive="true" />
    <path
       d="m 536.11637,746.99992 c -65.0116,0 -119.84461,-13.17088 -164.49904,-39.51261 C 326.9629,681.14557 293.14374,644.49618 270.15984,597.53917 247.83263,550.00949 236.66902,494.46277 236.66902,430.899 c 0,-61.84582 11.82029,-116.24726 35.46087,-163.20427 24.29726,-47.52967 59.75813,-84.46537 106.38261,-110.80711 46.62449,-26.9144 104.7409,-40.37159 174.34929,-40.37159 66.98165,0 78.32186,2.35741 113.62494,15.30222 4.58341,1.68062 21.85077,-26.18738 21.85077,-26.18738 l 32.75274,0.0832 0.51374,107.00655 -0.10729,59.8036 c 0,0 -12.55378,0.32429 -36.85104,0.32429 0,-17.75205 -3.61175,-34.93143 -10.83526,-51.53819 -7.22352,-17.17939 -19.37215,-31.20924 -36.4459,-42.08952 -16.41706,-11.45294 -57.57872,-17.17941 -86.47278,-17.17941 -74.20515,0 -127.06811,23.47852 -158.58888,70.43553 -30.86408,46.38437 -46.29613,112.52505 -46.29613,198.42204 0,51.53821 6.89516,96.77728 20.68549,135.71725 14.44703,38.93997 36.44591,69.29023 65.99663,91.0508 30.20741,21.76057 69.60837,32.64087 118.20289,32.64087 47.93786,0 85.36878,-7.15808 112.29277,-21.47426 27.58067,-14.88881 49.57954,-32.06821 65.99662,-51.53819 15.44791,8.41938 32.54115,17.44331 32.54115,17.44331 8.98597,6.36668 -22.04485,55.26363 -34.45069,64.15071 -17.36487,12.43953 -39.07251,25.6048 -71.96727,33.50795 -30.86409,9.73498 -70.5934,14.60247 -119.18794,14.60247 z"
       id="text9"
       style="font-size:720.718px;line-height:0;font-family:Serif;-inkscape-font-specification:Serif;letter-spacing:48.2623px;display:none;opacity:1;fill:#000000;fill-opacity:1;stroke-width:61.5963"
       aria-label="C"
       sodipodi:nodetypes="sscsccsscccccccscsccscccscss"
       inkscape:label="C"
       sodipodi:insensitive="true" />
    <path
       d="M 215.423,746.99993 V 709.1764 h 11.7073 q 30.61903,0 52.23246,-10.80672 21.61345,-11.70728 21.61345,-54.0336 V 203.06161 q 0,-39.62463 -22.514,-50.43136 -21.61343,-10.80672 -51.33191,-10.80672 H 215.423 V 104 h 275.57139 q 138.68627,0 216.13444,83.7521 77.44817,83.75208 77.44817,236.8473 0,99.06161 -33.32072,171.10642 -32.42017,72.04481 -98.16106,111.66946 -64.84034,39.62465 -162.10083,39.62465 z m 176.50979,-45.92858 h 78.34873 q 107.16666,0 160.29969,-71.14424 54.03361,-72.04482 54.03361,-205.32771 0,-133.2829 -54.03361,-204.42714 Q 577.44818,149.028 471.18208,149.028 h -79.24929 z"
       id="text10"
       style="font-size:689.577px;line-height:0;font-family:Serif;-inkscape-font-specification:Serif;letter-spacing:46.177px;display:none;opacity:1;stroke-width:60.3053"
       aria-label="D"
       inkscape:label="D"
       sodipodi:insensitive="true" />
    <path
       id="text11"
       style="font-size:689.577px;line-height:0;font-family:Serif;-inkscape-font-specification:Serif;letter-spacing:46.177px;display:none;opacity:1;stroke-width:60.3053"
       inkscape:label="E"
       d="m 255.49722,104.00084 v 37.82183 h 11.70772 c 20.41266,0 37.82436,3.90287 52.23329,11.70772 14.40896,7.20448 21.61212,24.91618 21.61212,53.13371 v 442.17464 c 0,26.41639 -7.50318,43.22802 -22.51251,50.4325 -14.40894,6.60409 -31.5206,9.90439 -51.3329,9.90439 H 255.49722 V 747 h 482.70022 l 6.30534,-157.59776 h -46.83092 l -6.30279,38.72478 c -3.00186,19.8123 -11.10765,37.22143 -24.31585,52.23075 -12.60784,14.40897 -33.01976,21.61466 -61.23729,21.61466 H 432.00844 V 432.70488 h 179.4726 c 44.32426,0 55.87062,33.13691 55.87062,76.17165 h 29.25401 v -98.03884 -0.3928 -98.04139 h -29.25401 c 0,43.03474 -11.54635,76.17421 -55.87062,76.17421 H 432.00844 V 149.02839 h 151.29242 c 27.01678,0 46.22862,7.50318 57.63569,22.51253 12.00746,14.40894 19.21317,31.5206 21.61466,51.3329 l 4.50201,38.72477 h 46.8309 l -4.50454,-157.59775 z"
       sodipodi:nodetypes="ccscsscscccccccsccsccccccsccscccccc"
       sodipodi:insensitive="true" />
    <path
       d="m 271.46222,747 v -37.71546 h 11.67384 q 29.63359,0 51.18528,-9.87786 22.44968,-10.77585 22.44968,-50.28729 V 204.61566 q 0,-39.51144 -22.44968,-50.28729 -21.55169,-10.77586 -51.18528,-10.77586 h -11.67384 v -37.71546 h 452.58563 l 4.48992,157.14779 h -46.69533 l -4.48993,-38.61346 Q 673.76055,193.8398 654.90282,172.2881 636.94308,150.73642 594.73766,150.73642 H 447.46775 v 259.51834 h 216.41494 v 44.00138 H 447.46775 v 190.3733 q 0,42.20541 21.55169,53.87925 21.55169,10.77585 52.08327,10.77585 h 29.63358 V 747 Z"
       id="text12"
       style="font-size:687.607px;line-height:0;font-family:Serif;-inkscape-font-specification:Serif;letter-spacing:46.0451px;display:none;stroke-width:60.1331"
       aria-label="F"
       inkscape:label="F"
       sodipodi:insensitive="true" />
    <path
       d="m 521.64701,747.00004 c -66.96141,0 -122.66638,-13.27682 -167.11489,-39.8305 C 310.66083,680.61588 277.7574,643.67167 255.82176,596.33688 234.46337,548.42483 223.7842,492.43123 223.7842,428.3561 c 0,-62.34338 11.25645,-117.18248 33.76932,-164.51727 23.09015,-47.91204 57.14809,-85.14489 102.17387,-111.69855 45.02577,-27.13092 100.73074,-40.69638 167.1149,-40.69638 36.59366,0 70.72606,3.58273 101.73438,11.20291 17.98712,4.42026 48.62761,-30.67445 48.62761,-30.67445 0,0 16.90117,-0.06136 25.95423,-0.06136 l -0.80253,127.37159 -0.47389,49.5899 c 0,0 -19.43118,0.16169 -41.94406,0.16169 0,-17.89485 -3.75215,-35.21247 -11.25645,-51.95282 -6.92703,-17.31761 -19.45147,-34.20827 -52.58069,-47.22764 -14.62858,-5.59368 -44.4367,-12.51811 -72.72212,-12.51811 -73.31119,0 -125.55264,23.66739 -156.72433,71.00218 -31.17169,46.75754 -46.75753,113.43032 -46.75753,200.01836 0,86.58803 16.16309,153.2608 48.48929,200.01834 32.3262,46.18028 88.03117,69.27043 167.1149,69.27043 16.74035,0 32.90345,-0.86589 48.48929,-2.59763 15.58584,-1.73177 29.43992,-4.32942 41.56224,-7.79295 V 547.84757 c 0,-25.39916 -7.21567,-41.56226 -21.647,-48.48929 -13.85409,-6.92705 -30.30581,-10.39056 -49.35518,-10.39056 h -3.46352 V 452.60074 H 776.2158 v 36.36698 h -3.46351 c -16.74036,0 -30.88307,3.75214 -42.42814,11.25644 -11.54506,6.92704 -17.3176,23.95601 -17.3176,51.08694 v 155.85844 c -28.86268,13.27683 -58.59123,23.37877 -89.18567,30.30582 -30.59443,6.34978 -64.65239,9.52468 -102.17387,9.52468 z"
       id="text13"
       style="font-size:678.439px;line-height:0;font-family:Serif;-inkscape-font-specification:Serif;letter-spacing:45.4311px;display:none;stroke-width:57.9829"
       inkscape:label="G"
       aria-label="G"
       sodipodi:nodetypes="sccsccsscccccccscscsscscsccccscsccs"
       sodipodi:insensitive="true" />
    <path
       d="m 181.05435,739.22264 v -37.36601 h 11.56567 q 30.24868,0 51.6007,-10.676 21.35199,-11.56568 21.35199,-53.38003 V 201.8637 q 0,-39.14534 -22.24167,-49.82136 -21.35201,-10.67599 -50.71102,-10.67599 h -11.56567 v -37.36603 h 258.89312 v 37.36603 h -11.56568 q -30.24867,0 -51.60068,11.56567 -21.35201,10.676 -21.35201,52.49036 V 385.13514 H 644.57091 V 205.42238 q 0,-41.81436 -21.35201,-52.49036 -21.35201,-11.56567 -51.60069,-11.56567 h -11.56568 v -37.36603 h 258.89312 v 37.36603 h -11.56567 q -30.24869,0 -51.60068,11.56567 -21.35202,10.676 -21.35202,52.49036 v 436.82654 q 0,39.14537 21.35202,49.82136 22.24166,9.78635 51.60068,9.78635 h 11.56567 v 37.36601 H 560.05253 v -37.36601 h 11.56567 q 30.24868,0 51.60069,-10.676 21.35202,-11.56568 21.35202,-53.38003 V 429.61849 H 355.4291 V 637.8006 q 0,41.81435 21.35201,53.38003 21.35201,10.676 51.60068,10.676 h 11.56568 v 37.36601 z"
       id="text14"
       style="font-size:666.667px;line-height:0;font-family:Serif;-inkscape-font-specification:Serif;letter-spacing:44.6428px;display:none;stroke-width:59.5759"
       aria-label="H"
       inkscape:label="H"
       sodipodi:insensitive="true" />
    <path
       d="M 370.55343,739.22232 V 701.8563 h 11.56567 q 30.24868,0 51.6007,-10.676 21.35202,-11.56569 21.35202,-53.38004 V 205.42204 q 0,-41.81435 -21.35202,-52.49035 -21.35201,-11.56568 -51.6007,-11.56568 H 370.55343 V 104 h 258.89313 v 37.36601 h -11.5657 q -30.24866,0 -51.60068,11.56568 -21.35201,10.676 -21.35201,52.49035 v 432.37822 q 0,41.81435 21.35201,53.38004 21.35202,10.676 51.60068,10.676 h 11.5657 v 37.36602 z"
       id="text15"
       style="font-size:666.667px;line-height:0;font-family:Serif;-inkscape-font-specification:Serif;letter-spacing:44.6429px;display:none;stroke-width:59.576"
       inkscape:label="I"
       aria-label="I"
       sodipodi:insensitive="true" />
    <path
       d="m 386.84969,744.99376 v -37.06621 l -0.0888,-22.99469 8.18779,0.0351 7.04707,20.55076 c 4.17796,12.18389 26.13668,-1.36431 39.4537,-8.91064 13.31702,-7.10239 23.52675,-19.53162 30.62916,-37.28767 7.10241,-17.75604 10.65362,-42.39253 10.65362,-73.90952 V 177.24394 c 0,-19.53164 -5.54876,-31.96086 -16.64628,-37.28767 -10.65363,-5.32682 -23.3048,-7.99023 -37.95352,-7.99023 h -8.65609 v -27.96575 h 193.76277 v 27.96575 h -8.65606 c -15.09263,0 -27.96577,2.88536 -38.61939,8.65608 -10.65362,5.32681 -15.98043,18.42189 -15.98043,39.28524 v 404.83766 c 0,39.95109 -6.88047,71.02417 -20.6414,93.21921 -13.31703,22.63896 -31.51696,38.39744 -54.59981,47.27546 -22.63896,9.32194 -48.16325,13.98289 -76.57292,13.98289 l -2.83457,5.66184 z"
       id="text1"
       style="font-size:498.952px;line-height:0;font-family:Serif;-inkscape-font-specification:Serif;letter-spacing:33.4119px;display:none;stroke-width:44.5882"
       aria-label="J"
       sodipodi:nodetypes="ccccscssscsccccscssccscc"
       inkscape:label="J"
       sodipodi:insensitive="true" />
    <path
       d="M 200.18218,739.22232 V 701.8563 h 11.56567 c 19.57269,0 36.47636,-3.26212 50.71104,-9.78634 14.82779,-7.11733 22.24167,-23.72445 22.24167,-49.82136 V 201.86338 c 0,-26.0969 -7.41388,-42.70402 -22.24167,-49.82135 -14.23468,-7.11734 -31.13835,-10.67602 -50.71104,-10.67602 H 200.18218 V 104 h 258.89314 v 37.36601 h -11.56566 c -20.1658,0 -37.36604,3.85523 -51.60071,11.56568 -14.23467,7.11734 -21.35201,24.61414 -21.35201,52.49035 V 456.30818 L 558.71805,245.45707 c 18.97955,-21.94511 31.73144,-39.44191 38.25567,-52.49035 7.11734,-13.64157 10.67602,-24.61413 10.67602,-32.91769 0,-7.71045 -3.55868,-12.75189 -10.67602,-15.12434 -7.11733,-2.96556 -18.0899,-4.44835 -32.9177,-4.44835 V 104 h 196.61646 v 36.47634 c -20.1658,0 -39.44192,7.71046 -57.82838,23.13135 -17.79333,14.82779 -38.25569,34.99358 -61.38704,60.49737 L 512.45534,369.1208 700.1751,630.68293 c 16.60711,23.13135 32.91768,40.92469 48.93169,53.38004 16.01402,11.86222 20.88683,16.88386 35.58909,24.60658 l 15.12194,7.94315 v 22.60962 h -9.78635 c -29.65555,0 -54.26969,-1.18622 -73.84235,-3.55867 -18.97957,-2.37245 -34.99358,-6.52422 -48.04204,-12.45535 -12.45535,-5.93112 -23.72446,-13.93811 -33.80735,-24.021 -9.48978,-10.67601 -19.86922,-24.02102 -31.13834,-40.03503 L 450.17865,439.4045 374.55694,500.79154 v 137.00872 c 0,27.87624 7.11734,45.66958 21.35201,53.38004 14.23467,7.11734 31.43491,10.676 51.60071,10.676 h 11.56565 v 37.36602 z"
       id="text3"
       style="font-size:666.667px;line-height:0;font-family:Serif;-inkscape-font-specification:Serif;letter-spacing:44.6427px;display:none;stroke-width:59.5758"
       inkscape:label="K"
       aria-label="K"
       sodipodi:nodetypes="ccscsscsccccscscccsccccccccccsccsccccccscsccc"
       sodipodi:insensitive="true" />
    <path
       id="rect3"
       style="display:none;fill:#000000;stroke-width:6.67249"
       d="m 286.34315,104.00031 v 30.87855 c 61.71167,0.81259 74.55738,36.80818 74.55738,68.65377 v 443.03839 a 70.350373,70.350373 0 0 1 -68.20807,70.31667 l -12.68818,0.38836 0.2007,21.94627 h 80.69555 90.746 265.13805 l 3.21114,-150.4753 h -30.51365 c 0,0 -9.48834,105.18831 -86.07786,105.18831 H 451.64653 v -490.4027 c -10e-6,-31.5334 12.84833,-68.65377 74.55998,-68.65377 v -30.87855 h -74.55998 -90.746 z"
       inkscape:label="L"
       sodipodi:insensitive="true" />
    <path
       d="m 108.61885,739.22232 v -37.36599 h 11.99876 c 20.30557,0 37.8422,-3.26211 52.6099,-9.78634 15.38301,-7.11733 23.07451,-23.72445 23.07451,-49.82133 V 201.86365 c 1e-5,-26.09689 -7.69149,-42.70401 -23.07451,-49.82134 -14.7677,-7.11733 -32.30433,-10.67598 -52.6099,-10.67598 H 108.61885 V 104.00031 H 319.0585 L 510.11553,612.88966 699.32661,104.00031 h 192.05454 v 37.36602 h -11.99874 c -20.92089,0 -38.76519,3.85522 -53.53288,11.56565 -14.7677,7.11734 -22.15156,24.61412 -22.15156,52.49033 v 432.378 c 0,27.87622 7.38386,45.66956 22.15156,53.38001 14.76769,7.11734 32.61199,10.67601 53.53288,10.67601 h 11.99874 v 37.36599 H 658.71544 v -37.36599 h 2.76893 c 19.69026,0 35.38094,-3.26211 47.07204,-9.78634 11.69108,-6.52423 18.15195,-21.9451 19.38258,-46.26266 V 170.72531 L 516.57637,739.22232 H 466.73541 L 252.60386,172.50465 v 465.29566 c 0,27.87622 5.84554,45.66956 17.53663,53.38001 11.6911,7.11734 27.9971,10.67601 48.91801,10.67601 h 2.76892 v 37.36599 z"
       id="text6"
       style="font-size:666.667px;line-height:0;font-family:Serif;-inkscape-font-specification:Serif;letter-spacing:44.6428px;display:none;stroke-width:60.681"
       aria-label="M"
       inkscape:label="M"
       sodipodi:nodetypes="ccscsccscccccccscsscsccccsscccccscsccc"
       sodipodi:insensitive="true" />
    <path
       d="m 169.25763,739.22232 v -41.3404 h 12.33758 c 21.51169,0 39.85991,-3.55865 55.04464,-10.67599 15.18474,-7.71046 22.77709,-21.52938 22.77709,-49.40561 V 206.68134 c 0,-26.09688 -7.9087,-42.70399 -23.72614,-49.82133 C 220.50606,149.74266 202.47419,146.184 181.5952,146.184 h -12.33758 v -42.18369 h 173.67531 l 339.75831,491.98568 v -386.8958 c 0,-26.09689 -7.90871,-42.704 -23.72613,-49.82135 -15.18472,-7.11732 -33.21658,-10.67599 -54.0956,-10.67599 h -12.33758 v -44.59254 h 238.21045 v 44.59254 h -12.33762 c -21.51168,0 -39.85991,3.85521 -55.04462,11.56565 -15.18473,7.11736 -22.77711,24.61413 -22.77711,52.49034 V 739.22232 H 673.20081 L 317.30872,226.7743 v 411.02602 c 0,27.87623 7.59236,41.69515 22.7771,49.40561 15.18473,7.11734 33.53294,10.67599 55.04463,10.67599 h 12.3376 v 41.3404 z"
       id="text8"
       style="font-size:666.667px;line-height:0;font-family:Serif;-inkscape-font-specification:Serif;letter-spacing:44.6428px;display:none;stroke-width:61.5319"
       aria-label="N"
       sodipodi:nodetypes="ccscsscsccccscsccccscscccscsccc"
       inkscape:label="N"
       sodipodi:insensitive="true" />
    <path
       d="m 500.50191,739.22235 q -106.40536,0 -176.67304,-39.7554 Q 253.56118,659.71157 218.42735,587.97902 184.29732,516.24647 184.29732,420.315 q 0,-95.93147 34.13003,-166.79978 35.13383,-70.8683 105.40152,-109.75943 71.27152,-39.7554 177.67689,-39.7554 100.38241,0 170.65008,39.7554 70.26769,38.89113 106.40535,110.62369 37.14148,70.86828 37.14148,166.79976 0,95.93148 -37.14148,167.66404 -36.13768,70.86829 -106.40535,110.62367 -70.26769,39.7554 -171.65393,39.7554 z m 0,-46.66938 q 112.4283,0 157.60037,-71.73256 46.17592,-71.73253 46.17592,-199.64117 0,-127.90864 -46.17592,-198.77694 -45.17207,-71.73254 -156.59653,-71.73254 -112.42831,0 -159.60804,71.73254 -46.17591,70.8683 -46.17591,198.77694 0,127.90864 46.17591,199.64117 47.17973,71.73256 158.6042,71.73256 z"
       id="text16"
       style="font-size:697.958px;line-height:0;font-family:Serif;-inkscape-font-specification:Serif;letter-spacing:46.7382px;display:none;stroke-width:62.3722"
       aria-label="O"
       inkscape:label="O"
       sodipodi:insensitive="true" />
    <path
       d="M 272.38595,739.22232 V 701.8563 h 11.56569 c 20.16577,0 37.36601,-3.55866 51.60069,-10.676 14.23467,-7.71046 21.35201,-25.5038 21.35201,-53.38004 V 201.86338 c 0,-26.0969 -7.41389,-42.70402 -22.24169,-49.82135 -14.23467,-7.11734 -31.13834,-10.67602 -50.71101,-10.67602 H 272.38595 V 104 h 236.36998 c 74.73205,0 129.89141,16.60713 165.47809,49.82136 35.58668,33.21424 53.38003,78.58726 53.38003,136.11908 0,34.99356 -7.71046,53.14921 -23.13135,83.99101 -14.82779,30.8418 -39.73847,55.75246 -74.73203,74.73203 -34.99358,18.97957 -81.84938,28.46936 -140.56741,28.46936 H 433.13422 V 642.2486 c 0,26.09691 7.11735,42.70403 21.35203,49.82136 14.82778,6.52422 32.02801,9.78634 51.60069,9.78634 h 29.35902 v 37.36602 z M 433.13422,435.31849 h 47.15237 c 53.97313,0 92.52538,-11.86224 115.65672,-35.58669 23.72446,-24.31756 35.58668,-49.88712 35.58668,-106.2327 0,-49.82136 -10.37945,-86.59427 -31.13835,-110.31873 -20.75889,-24.31757 -56.34557,-36.47635 -106.76006,-36.47635 h -60.49736 z"
       id="text17"
       style="font-size:666.667px;line-height:0;font-family:Serif;-inkscape-font-specification:Serif;letter-spacing:44.6427px;display:none;stroke-width:59.5758"
       aria-label="P"
       sodipodi:nodetypes="ccscsscsccssscsscscsccccscscscc"
       inkscape:label="P"
       sodipodi:insensitive="true" />
    <path
       d="m 676.50061,917.50944 c -33.08411,0 -65.54399,-5.78031 -97.37965,-17.3409 -31.21141,-11.56058 -58.05324,-31.21355 -80.52547,-58.95896 -21.848,-27.74544 -34.64468,-48.80855 -38.39005,-98.51909 -57.42901,-5.78028 -104.87038,-22.25412 -142.32409,-49.42151 -37.45372,-27.74541 -65.54399,-64.45027 -84.27084,-110.11461 -18.72685,-46.24236 -28.09029,-99.13205 -28.09029,-158.66908 0,-64.16128 10.61189,-119.94112 31.83565,-167.33952 21.848,-47.39842 54.62,-84.10329 98.31598,-110.11463 44.32023,-26.58935 99.56445,-39.88402 165.73266,-39.88402 62.42284,0 115.48227,13.29467 159.17827,39.88402 43.69599,26.01134 76.78009,63.00521 99.2523,110.98166 23.09647,47.3984 34.6447,103.17824 34.6447,167.33952 0,56.64689 -9.05132,106.93545 -27.15395,150.86568 -17.47838,43.93024 -43.38388,80.05708 -77.71644,108.38052 -34.33256,27.74542 -76.46798,45.95335 -126.40627,54.6238 3.74538,39.306 11.54824,48.55098 23.40857,71.0941 12.48458,23.1212 28.4024,39.30602 47.75348,48.55449 19.97534,9.24847 42.44754,13.8727 67.41669,13.8727 h 14.98149 l 14.76202,44.76583 z M 500.46817,697.60422 c 69.9136,0 118.91553,-23.98824 147.00582,-71.96469 28.71449,-47.97644 43.07175,-114.73885 43.07175,-200.28721 0,-85.54837 -14.35726,-152.02174 -43.07175,-199.42014 -28.09029,-47.97645 -76.78012,-71.96468 -146.06948,-71.96468 -69.91358,0 -119.53975,23.98823 -148.87847,71.96468 -28.71452,47.3984 -43.07177,113.87177 -43.07177,199.42014 0,85.54836 14.35725,152.31077 43.07177,200.28721 29.33872,47.97645 78.65277,71.96469 147.94213,71.96469 z"
       id="text18"
       style="font-size:654.343px;line-height:0;font-family:Serif;-inkscape-font-specification:Serif;letter-spacing:43.8178px;display:none;stroke-width:60.3371"
       aria-label="Q"
       sodipodi:nodetypes="scccccsccsccscccccsccsscscscscs"
       inkscape:label="Q"
       sodipodi:insensitive="true" />
    <path
       d="M 222.42386,739.22232 V 701.8563 h 11.56567 c 19.57267,0 36.47636,-3.26212 50.71102,-9.78634 14.82779,-7.11733 22.24169,-23.72445 22.24169,-49.82136 V 201.86338 c 0,-26.0969 -7.4139,-42.70402 -22.24169,-49.82135 -14.23466,-7.11734 -31.13834,-10.67602 -50.71102,-10.67602 H 222.42386 V 104 h 239.32046 c 152.42962,0 228.64445,57.23525 228.64445,171.70576 0,31.43491 -6.52422,58.12491 -19.57269,80.07004 -13.04845,21.35202 -29.65555,38.55223 -49.82136,51.60067 -20.16577,13.04848 -40.62812,23.13138 -61.38702,30.24871 l 121.88439,207.252 c 15.42091,23.72447 30.2487,41.51781 44.48336,53.38003 14.23467,11.86224 30.54522,17.79334 48.93169,17.79334 h 2.669 v 23.17177 h -12.45533 c -36.77292,0 -65.53882,-1.77933 -86.2977,-5.338 -20.16581,-4.15178 -36.77292,-11.86221 -49.82136,-23.13134 -12.45535,-11.86223 -25.20724,-29.06246 -38.25569,-51.60071 L 470.64098,458.97719 H 396.79861 V 642.2486 c 0,26.09691 7.11734,42.70403 21.35201,49.82136 14.82778,6.52422 32.02802,9.78634 51.60069,9.78634 h 11.56568 v 37.36602 z m 174.37476,-322.0595 h 62.27669 c 52.19381,0 87.7805,-11.56567 106.76007,-34.69701 19.57266,-23.13136 29.35901,-57.82837 29.35901,-104.09105 0,-47.44892 -10.37945,-81.25627 -31.13835,-101.42206 -20.7589,-20.16579 -56.34559,-30.24868 -106.76005,-30.24868 h -60.49737 z"
       id="text19"
       style="font-size:666.667px;line-height:0;font-family:Serif;-inkscape-font-specification:Serif;letter-spacing:44.6428px;display:none;stroke-width:59.5759"
       aria-label="R"
       sodipodi:nodetypes="ccscsscsccsscsccssccscccccscsccccscssscc"
       inkscape:label="R"
       sodipodi:insensitive="true" />
    <path
       id="path24"
       style="font-size:677.591px;line-height:0;font-family:Serif;-inkscape-font-specification:Serif;letter-spacing:45.3743px;display:none;stroke-width:61.2931"
       d="m 686.57588,79.307512 -32.10603,0.105524 -44.07619,40.208384 v 0.11083 c -27.73547,-10.43813 -62.07798,-15.73245 -103.22,-15.73245 -40.16751,0 -76.19294,6.42485 -108.07189,19.2731 -31.24139,12.26424 -56.10678,30.36855 -74.59658,54.31299 -17.85223,23.36043 -26.77658,51.68458 -26.77658,84.97319 0,48.4729 14.34563,87.60073 43.0367,117.38526 29.32866,29.20055 73.6408,54.89742 132.93568,77.08982 37.61716,14.01625 66.94606,27.44984 87.98618,40.29808 21.67769,12.84825 36.97847,26.86303 45.90455,42.04732 9.56369,14.60028 14.3447,32.70459 14.3447,54.31297 0,35.62467 -12.11255,63.07306 -36.34057,82.3454 -24.228,18.68835 -57.70289,28.03242 -100.42071,28.03242 -29.96622,0 -54.19398,-6.42225 -72.68378,-19.27047 -18.48979,-13.43225 -32.19776,-30.66079 -41.12389,-51.68518 -8.92608,-21.02441 -14.02724,-43.80206 -15.3024,-68.33051 -21.67771,0 -38.57125,5.54911 -50.68525,16.64532 -12.114,10.51218 -18.17293,24.52699 -18.17293,42.04731 0,36.79267 15.94106,66.57904 47.82002,89.35549 32.51655,22.77641 80.01691,34.16393 142.49968,34.16393 72.04646,0 129.10881,-15.47703 171.18902,-46.4296 42.71782,-30.95258 64.0775,-74.16991 64.0775,-129.65094 0,-44.96884 -15.62089,-81.17745 -46.86228,-108.62595 -31.24139,-27.44849 -74.9159,-51.68313 -131.02289,-72.70752 -36.97957,-14.01625 -66.30846,-27.15793 -87.98616,-39.42216 -21.6777,-12.84824 -37.2986,-27.15759 -46.86231,-42.92587 -8.92609,-16.35232 -13.38959,-36.20813 -13.38959,-59.56856 0,-30.36857 10.20227,-54.60319 30.60481,-72.70754 20.40252,-18.10434 49.09377,-27.15911 86.07338,-27.15911 26.77832,0 47.81786,5.54911 63.11977,16.64531 15.93948,11.0962 27.0969,25.11364 33.47269,42.04996 7.01337,16.93631 10.51909,34.45677 10.51909,52.56111 h 76.11626 z"
       inkscape:label="S"
       sodipodi:insensitive="true" />
    <path
       id="text29"
       style="font-size:666.738px;line-height:0;font-family:Serif;-inkscape-font-specification:Serif;letter-spacing:44.6476px;display:none;stroke-width:60.3114"
       d="m 247.36524,103.99979 -4.50102,157.61475 h 37.88926 c 0,-83.72438 12.12208,-112.58348 74.76544,-112.58348 h 98.996 v 499.86356 c 0,26.419 -7.50483,43.22944 -22.51564,50.43461 -14.41037,6.60478 -31.52265,9.90699 -51.33692,9.907 H 359.9487 v 37.82858 H 500 640.05128 v -37.82858 h -20.71365 c -19.81427,-10e-6 -36.92656,-3.30222 -51.33692,-9.907 -15.01081,-7.20517 -22.51564,-24.01561 -22.51564,-50.43461 V 149.03106 h 98.99598 c 62.64338,0 74.76544,28.8591 74.76544,112.58348 h 37.88928 l -4.501,-157.61475 H 500 Z"
       inkscape:label="T"
       sodipodi:insensitive="true" />
    <path
       d="m 503.41016,746.99649 q -114.97071,0 -180.25067,-46.18206 Q 257.8795,654.63237 257.8795,546.28217 V 201.69298 q 0,-39.07713 -24.35819,-49.73452 -23.38387,-10.6574 -55.53669,-10.6574 h -12.66628 v -37.3009 H 448.8478 v 37.3009 h -12.66627 q -33.12716,0 -56.51101,11.54551 -23.38389,10.65739 -23.38389,52.39888 v 346.36541 q 0,77.26614 45.79342,110.12644 45.79341,31.97221 116.91936,31.97221 83.79219,0 123.73964,-39.07714 39.94745,-39.07712 39.94745,-99.46903 V 201.69298 q 0,-39.07713 -24.3582,-49.73452 -23.38387,-10.6574 -55.53669,-10.6574 h -12.66625 v -37.3009 h 244.5563 v 37.3009 h -12.66627 q -33.12715,0 -56.51102,11.54551 -23.38387,10.65739 -23.38387,52.39888 v 351.69411 q 0,88.81166 -61.38266,139.43429 -61.38268,50.62264 -177.32768,50.62264 z"
       id="text30"
       style="font-size:688.63px;line-height:0;font-family:Serif;-inkscape-font-specification:Serif;letter-spacing:46.1136px;display:none;stroke-width:62.2918"
       aria-label="U"
       inkscape:label="U"
       sodipodi:insensitive="true" />
    <path
       d="M 459.59615,746.8458 226.86998,189.5327 q -10.77436,-27.91068 -28.01335,-37.81446 -17.23897,-9.90379 -48.48462,-9.90379 H 136.36535 V 104 h 296.29489 v 37.81445 h -24.78103 q -64.64616,0 -64.64616,43.21653 0,7.20276 2.15487,15.30585 2.15488,8.10311 6.46462,18.00689 L 470.37052,510.9556 q 16.16152,39.61516 28.01331,77.42961 11.8518,37.81446 20.47128,70.22684 7.54207,-32.41238 19.39386,-69.32649 11.8518,-36.91412 30.16821,-78.32996 L 686.93513,224.64612 q 4.30976,-10.80413 6.46461,-20.7079 3.23232,-10.80414 3.23232,-18.00689 0,-44.11688 -71.11077,-44.11688 H 600.74026 V 104 h 262.89439 v 37.81445 h -20.47128 q -31.24564,0 -48.48463,13.50518 -16.16153,12.60482 -33.40051,56.72169 L 538.24897,746.8458 Z"
       id="text31"
       style="font-size:729.119px;line-height:0;font-family:Serif;-inkscape-font-specification:Serif;letter-spacing:48.8248px;display:none;stroke-width:65.9542"
       aria-label="V"
       inkscape:label="V"
       sodipodi:insensitive="true" />
    <path
       d="M 287.41475,746.99614 130.23053,189.55277 q -8.5893,-27.91719 -22.33219,-37.8233 -13.742878,-9.90611 -38.65185,-9.90611 H 58.080407 v -37.8233 H 294.28619 v 37.8233 h -19.7554 q -51.53581,0 -51.53581,43.22663 0,7.20445 1.71787,15.30943 2.57678,8.105 5.15358,18.01109 l 79.02158,288.17751 q 11.16609,40.52497 20.61432,80.14937 9.44823,39.6244 16.31967,72.04438 6.87144,-35.12164 15.46076,-76.54715 8.58929,-42.32607 19.75538,-85.5527 L 483.25082,110.30396 h 61.84298 l 107.36629,389.94018 q 12.02501,45.02774 21.47324,86.45325 9.44824,41.42552 15.46075,72.04438 6.87144,-32.41998 14.60181,-68.44216 7.73037,-36.02219 19.75538,-79.24882 l 75.58587,-278.27141 q 2.57678,-10.80665 6.01251,-25.21551 3.43573,-14.40889 3.43573,-21.61333 0,-44.12718 -56.68941,-44.12718 h -19.75538 v -37.8233 h 209.579 v 37.8233 h -16.31971 q -24.90896,0 -39.51079,12.60777 -13.74287,12.60777 -25.76789,57.6355 L 715.16198,746.99614 H 637.85826 L 497.85264,242.68549 366.43633,746.99614 Z"
       id="text32"
       style="font-size:651.077px;line-height:0;font-family:Serif;-inkscape-font-specification:Serif;letter-spacing:43.599px;display:none;stroke-width:58.8949"
       inkscape:label="W"
       aria-label="W"
       sodipodi:insensitive="true" />
    <path
       d="m 189.24405,746.99621 v -37.8233 h 5.79051 q 34.74288,0 54.04449,-13.50835 20.26668,-14.40888 46.32386,-49.53053 L 456.57138,430.90134 297.33306,189.55251 Q 279.96163,163.43642 257.76478,152.62977 235.56792,141.8231 214.33615,141.8231 h -12.54607 v -37.82331 h 261.53686 v 37.82331 h -2.89523 q -33.77783,0 -44.39372,8.10499 -10.61588,7.20445 -10.61588,18.01111 0,9.9061 3.86032,19.81222 3.86032,9.90611 19.30162,33.32055 l 86.85725,131.48105 91.68264,-129.67996 q 10.61589,-15.30944 17.37146,-28.81776 6.75557,-14.4089 6.75557,-26.1161 0,-16.20999 -15.4413,-20.71278 -14.47621,-5.40332 -36.67307,-5.40332 h -2.89524 v -37.82331 h 211.35266 v 37.82331 h -8.68574 q -27.98733,0 -48.25403,14.40888 -20.26668,13.50833 -47.28896,50.43108 L 543.42862,394.87911 721.00346,661.44347 q 21.23176,26.1161 39.56828,36.92277 19.30163,10.80667 37.63814,10.80667 h 12.54606 v 37.8233 H 550.18419 v -37.8233 h 4.82539 q 57.90484,0 57.90484,-29.71832 0,-9.90612 -5.79048,-20.7128 -5.79048,-11.70722 -26.05719,-41.42554 L 485.5238,474.12797 378.39983,621.81903 q -7.72062,11.70723 -16.40634,28.81779 -8.68573,16.20998 -8.68573,30.61886 0,27.91723 62.73024,27.91723 h 2.89524 v 37.8233 z"
       id="text33"
       style="font-size:666.667px;line-height:0;font-family:Serif;-inkscape-font-specification:Serif;letter-spacing:44.6429px;display:none;stroke-width:62.4282"
       aria-label="X"
       inkscape:label="X"
       sodipodi:insensitive="true" />
    <path
       d="m 366.97302,746.99625 v -37.82333 h 20.0631 q 28.78615,0 49.72154,-9.90611 21.8077,-10.80668 21.8077,-50.43111 V 478.63068 L 297.18839,189.55236 Q 282.35915,163.43623 270.14684,152.62958 257.93452,141.8229 235.25453,141.8229 h -11.34002 v -37.82332 h 239.8847 v 37.82332 h -32.27539 q -23.55231,0 -31.40308,9.00556 -6.97847,8.10499 -6.97847,19.81222 0,12.60778 5.23384,25.21557 5.23386,12.60775 10.4677,22.51387 l 64.55079,120.67446 q 14.82924,27.91722 25.29695,54.93389 11.34,27.01666 18.31845,47.72945 7.85077,-18.91167 22.68,-46.82889 14.82924,-27.91723 29.65848,-55.83445 l 55.82773,-103.5639 q 8.72306,-15.30944 12.2123,-28.81776 3.48923,-14.4089 3.48923,-25.21557 0,-39.62445 -52.33848,-39.62445 H 563.24234 V 103.99958 H 776.08549 V 141.8229 H 765.6178 q -18.31847,0 -34.89233,15.30947 -15.70153,14.40888 -37.50923,54.93389 L 546.66849,478.63068 v 165.70224 q 0,42.32611 20.93539,54.03333 20.93538,10.80667 50.59384,10.80667 h 20.0631 v 37.82333 z"
       id="text34"
       style="font-size:656.128px;line-height:0;font-family:Serif;-inkscape-font-specification:Serif;letter-spacing:43.9371px;display:none;stroke-width:59.3517"
       inkscape:label="Y"
       aria-label="Y"
       sodipodi:insensitive="true" />
    <path
       d="M 239.59057,746.99618 V 710.97399 L 619.56541,149.02784 H 399.68664 q -44.58372,0 -61.80925,22.51388 -17.22552,21.6133 -21.27858,51.33162 l -5.06633,38.72385 h -52.68985 l 5.06633,-157.59707 h 480.28821 v 36.92273 L 363.20905,701.96844 h 255.34311 q 45.59697,0 62.8225,-21.6133 17.22554,-22.51386 21.27858,-52.23218 l 5.06633,-38.72386 h 52.68986 l -5.06633,157.59708 z"
       id="text35"
       style="font-size:707.156px;line-height:0;font-family:Serif;-inkscape-font-specification:Serif;letter-spacing:47.3542px;display:none;stroke-width:63.9676"
       aria-label="Z"
       inkscape:label="Z"
       sodipodi:insensitive="true" />
  </g>
  <g
     id="layer1"
     inkscape:groupmode="layer"
     inkscape:label="Lowercase"
     inkscape:highlight-color="#35c1f3"
     sodipodi:insensitive="true"
     style="display:inline">
    <path
       d="m 419.1502,747 c -45.14114,0 -82.53417,-11.33333 -112.1791,-34 -29.64492,-22.66667 -44.46738,-49.11112 -44.46738,-96.76923 0,-46.49574 18.86496,-80.78634 56.59486,-102.8718 38.40365,-22.08546 96.346,-34.2906 173.82706,-36.61539 l 83.88166,-2.61538 v -52.30769 c 0,-20.92307 -2.02125,-39.23077 -6.06374,-54.92309 -4.04248,-16.27349 -12.80121,-29.05981 -26.27617,-38.35897 -13.47497,-9.29913 -34.02429,-13.94871 -61.64797,-13.94871 -25.60244,0 -45.14114,4.06836 -58.61611,12.20511 -13.47497,8.13676 -22.57057,19.4701 -27.28681,34.00003 -4.04249,14.52991 -6.06373,30.80341 -6.06373,48.82051 -28.29743,0 -49.85737,-4.06839 -64.67984,-12.20515 -14.14871,-8.71794 -21.22307,-22.95725 -21.22307,-42.71794 0,-19.76069 8.08498,-35.74359 24.25494,-47.94873 16.84371,-12.78631 38.74053,-21.79485 65.69046,-27.02563 C 422.51894,273.90598 453.17449,271 486.86191,271 c 61.98484,0 108.1366,11.33332 138.45527,33.99999 30.99242,22.66667 46.48864,61.60685 46.48864,116.82052 v 225.79488 c 0,24.41025 4.71623,40.97436 14.14871,49.69229 9.43248,8.71796 25.60243,13.07693 48.50987,13.07693 h 3.03188 V 747 H 601.06225 l -16.16996,-74.97436 h -8.08499 c -14.14871,16.2735 -25.48882,31.69182 -41.43552,43.58974 -14.91682,12.20513 -25.90942,16.83235 -45.64545,24.12137 C 470.7112,744.31239 446.77388,747 419.1502,747 Z m 23.24432,-45.33334 c 41.09864,0 73.77543,-10.75212 98.03037,-32.25639 24.25494,-22.08549 36.38241,-51.72651 36.38241,-88.92309 V 509.8718 l -64.67983,2.61538 c -57.26861,2.32478 -97.01976,12.49572 -119.25346,30.51281 -21.55994,17.43591 -32.33991,43.29916 -32.33991,77.58975 0,54.05129 27.28681,81.07692 81.86042,81.07692 z"
       id="text49"
       style="font-size:867.348px;line-height:0;font-family:Serif;-inkscape-font-specification:Serif;letter-spacing:58.0813px;display:none;stroke-width:62.8557"
       inkscape:label="a"
       aria-label="a"
       sodipodi:nodetypes="ssscccscssscccsccscsssscccccccsscscccss"
       sodipodi:insensitive="true" />
    <path
       d="m 500.12436,822.14455 c -26.64493,0 -48.46621,1.20526 -65.46384,-9.82023 -16.53823,-11.48489 -29.8607,-26.18554 -39.96739,-44.10196 h -4.13456 L 378.1549,821.97162 H 267.90001 v -28.94191 h 5.51275 c 15.61944,0 28.9419,-2.75637 39.96739,-8.26911 11.02549,-5.97214 16.53823,-19.754 16.53823,-41.34559 V 374.06116 c 0,-20.2134 -5.74244,-33.07647 -17.22732,-38.58921 -11.02549,-5.51275 -24.11825,-8.26912 -39.2783,-8.26912 h -5.51275 v -28.9419 h 126.79312 v 126.79311 c 0,8.26911 -0.2297,18.37581 -0.6891,30.32009 0,11.94428 -0.2297,23.65886 -0.68909,35.14375 -0.45939,11.02549 -0.91879,19.0649 -1.37818,24.11825 h 2.75637 c 10.10669,-21.13219 23.42916,-37.90012 39.96739,-50.30379 16.53823,-12.40367 38.35951,-18.60551 65.46384,-18.60551 45.48014,0 80.16449,15.38974 104.05304,46.16923 24.34795,30.32009 36.52193,78.55661 36.52193,144.70954 0,66.61232 -12.17398,115.30823 -36.52193,146.08772 -23.88855,30.77949 -58.5729,39.45123 -104.05304,39.45123 z M 489.09887,784.7606 c 30.32009,0 51.91167,-12.63337 64.77474,-37.90012 13.32247,-25.72614 19.9837,-62.70747 19.9837,-110.94398 0,-48.69591 -6.66123,-85.21784 -19.9837,-109.56579 -12.86307,-24.34795 -34.68434,-36.52193 -65.46383,-36.52193 -35.83284,0 -60.41049,12.17398 -73.73296,36.52193 -13.32246,23.88856 -19.98369,60.64019 -19.98369,110.25489 0,47.77711 6.66123,84.52874 19.98369,110.25488 13.32247,25.26675 38.12982,37.90012 74.42205,37.90012 z"
       id="text50"
       style="font-size:689.093px;line-height:0;font-family:Serif;-inkscape-font-specification:Serif;letter-spacing:46.1444px;display:none;stroke-width:46.1444"
       transform="scale(1.1005951,0.90859935)"
       aria-label="b"
       inkscape:label="b"
       sodipodi:nodetypes="sccccccscsscscccsccccsscscsscscscscs"
       sodipodi:insensitive="true" />
    <path
       d="m 495.97615,797.36151 c -40.86848,0 -76.85714,-8.53968 -107.96599,-25.61905 -31.10884,-17.07936 -55.81292,-43.91836 -74.11224,-80.517 -17.68935,-37.20862 -26.53402,-85.70182 -26.53402,-145.4796 0,-65.26757 8.84467,-116.50567 26.53402,-153.71429 18.29932,-37.81859 42.69841,-64.35261 73.19728,-79.60204 30.49887,-15.85941 65.26757,-23.78911 104.30612,-23.78911 25.61905,0 50.62812,3.35487 75.02721,10.06462 24.39909,6.70975 44.52835,17.07937 60.38776,31.10885 15.85941,14.02947 20.50303,30.88128 20.50303,51.62051 0,20.73923 -3.72865,43.13933 -17.75813,52.28899 -13.41951,8.53969 -33.54876,5.88642 -60.38776,5.88642 0,-28.66894 -5.4898,-53.37302 -16.46939,-74.11225 -10.36961,-20.73923 -30.80385,-31.10884 -61.30272,-31.10884 -23.17914,0 -43.61338,6.09977 -61.30272,18.29932 -17.07937,12.19955 -30.49887,33.54875 -40.25851,64.04762 -9.14966,30.49887 -13.72449,73.19728 -13.72449,128.09524 0,64.65759 10.6746,113.15079 32.02381,145.47959 21.95919,31.71882 57.33787,47.57823 106.13606,47.57823 28.66893,0 53.37302,-5.79478 74.11225,-17.38435 21.34921,-12.19955 37.20862,-27.75397 47.57823,-46.66327 10.36961,8.53969 15.55442,20.43425 15.55442,35.68368 0,14.02947 -5.79478,27.75396 -17.38435,41.17347 -11.58957,13.4195 -28.97393,24.70408 -52.15307,33.85374 -22.56916,8.53968 -51.23809,12.80952 -86.0068,12.80952 z"
       id="text51"
       style="font-size:914.966px;line-height:0;font-family:Serif;-inkscape-font-specification:Serif;letter-spacing:61.2702px;display:none;stroke-width:61.2702"
       transform="scale(1.065094,0.93888426)"
       aria-label="c"
       sodipodi:nodetypes="sscsccsssscccsccscsccsscs"
       inkscape:label="c"
       sodipodi:insensitive="true" />
    <path
       d="m 452.14258,746.99992 c -47.4976,0 -83.9604,-7.51579 -109.3884,-35.07368 -24.94823,-27.97543 -37.42235,-72.0263 -37.42235,-132.15261 0,-60.54385 12.47412,-104.8035 37.42235,-132.77893 25.428,-27.97544 61.89079,-41.96315 109.3884,-41.96315 27.82686,0 50.37623,5.2193 67.64808,15.65789 17.75162,10.02105 31.90495,23.17368 42.45998,39.45789 h 4.31795 c -1.43932,-10.4386 -2.63876,-21.92104 -3.59829,-34.44736 -0.47979,-12.94386 -0.71966,-24.42632 -0.71966,-34.44737 v -51.35787 c 0,-18.37194 -5.99718,-30.06317 -17.99152,-35.07369 -11.51457,-5.01052 -25.18811,-7.51578 -41.02065,-7.51578 h -5.75729 V 271 h 132.41754 v 407.10519 c 0,18.37193 5.75729,30.06315 17.27185,35.07367 11.99434,5.01053 25.90778,7.51579 41.74031,7.51579 h 5.75729 v 26.30527 H 573.04553 l -7.91626,-56.36841 h -2.87863 c -10.55503,19.207 -24.46846,34.44735 -41.74032,45.72104 -17.27184,11.27368 -40.06109,10.64737 -68.36774,10.64737 z m 12.23423,-33.82106 c 37.42235,0 63.09024,-10.85614 77.00367,-32.5684 13.91344,-22.12982 20.87016,-55.7421 20.87016,-100.83683 0,-43.42456 -6.95673,-76.61929 -20.87016,-99.5842 -13.91343,-23.38244 -39.82121,-35.07367 -77.72333,-35.07367 -31.66507,0 -54.45432,11.69123 -68.36776,35.07367 -13.43366,22.96491 -20.15049,56.36841 -20.15049,100.21052 0,44.25964 6.71683,77.45436 20.15049,99.58418 13.91344,22.12982 36.94258,33.19473 69.08742,33.19473 z"
       id="text52"
       style="font-size:662.649px;line-height:0;font-family:Serif;-inkscape-font-specification:Serif;letter-spacing:44.3738px;display:none;stroke-width:44.9576"
       aria-label="d"
       inkscape:label="d"
       sodipodi:nodetypes="scscsccccsscscccscscccccssscscscscs"
       sodipodi:insensitive="true" />
    <path
       d="m 514.55395,746.99999 q -93.31653,0 -146.39566,-61.64028 -52.22302,-61.64028 -52.22302,-172.93522 0,-119.8561 48.79856,-180.64027 49.65467,-60.78416 141.25897,-60.78416 83.04315,0 130.12949,51.3669 47.94244,51.3669 47.94244,153.24458 v 39.38129 h -285.0863 q 1.71223,93.31653 33.38848,136.12228 32.53238,41.94964 94.17266,41.94964 44.51797,0 75.33812,-17.97842 31.67625,-18.83453 47.08632,-41.94963 5.9928,2.56834 11.1295,10.27338 5.13669,7.70503 5.13669,18.83453 0,17.1223 -16.26619,36.81294 -16.26618,19.69065 -50.51078,34.2446 -33.38849,13.69784 -83.89928,13.69784 z M 400.69066,468.76262 H 597.5971 q 0,-67.63308 -21.40287,-109.58272 -20.54676,-41.94963 -71.91366,-41.94963 -47.08632,0 -73.62589,39.38129 -25.68345,38.52517 -29.96402,112.15106 z"
       id="text53"
       style="font-size:856.115px;line-height:0;font-family:Serif;-inkscape-font-specification:Serif;letter-spacing:57.3291px;display:none;stroke-width:57.3291"
       aria-label="e"
       inkscape:label="e"
       sodipodi:insensitive="true" />
    <path
       d="m 372.65451,747 v -25.96364 h 8.03636 q 21.01819,0 35.85456,-7.41819 14.83637,-8.03636 14.83637,-37.09092 V 444.709 h -56.25457 v -29.05456 h 56.25457 v -30.9091 q 0,-55.01819 29.05455,-84.07275 29.67274,-29.67274 80.36366,-29.67274 48.2182,0 67.38184,12.36364 19.16364,11.74546 19.16364,30.90911 0,16.69091 -14.21818,25.96364 -14.21819,8.65455 -36.47274,8.65455 0,-18.54546 -8.65455,-34.00001 -8.65455,-15.45455 -32.14546,-15.45455 -26.58183,0 -36.47274,20.4 -9.89091,20.40001 -9.89091,59.34548 v 36.47273 h 87.16366 V 444.709 h -87.16366 v 231.81825 q 0,29.05456 14.83636,37.09092 14.83637,7.41819 35.85456,7.41819 h 23.49092 V 747 Z"
       id="text54"
       style="font-size:618.182px;line-height:0;font-family:Serif;-inkscape-font-specification:Serif;letter-spacing:41.3961px;display:none;stroke-width:41.3961"
       aria-label="f"
       inkscape:label="f"
       sodipodi:insensitive="true" />
    <path
       d="m 473.34932,747.00001 q -63.71658,0 -95.57486,-23.00372 -31.85828,-22.41389 -31.85828,-63.1128 0,-34.21067 22.6684,-52.49569 23.28104,-17.69517 53.91401,-23.00373 -12.25319,-5.30855 -23.28105,-17.10533 -10.41521,-12.38663 -10.41521,-31.26148 0,-17.69517 9.18989,-30.67163 9.80255,-12.97647 30.63296,-24.77325 -26.34435,-10.61711 -41.04817,-34.80051 -14.09117,-24.77325 -14.09117,-54.26521 0,-50.72617 28.79499,-79.62829 28.795,-29.49195 86.38497,-29.49195 22.05574,0 41.66084,5.89839 19.60509,5.89839 28.18232,13.5663 8.57724,-9.43743 23.89372,-20.64438 15.31649,-11.20695 35.53424,-11.20695 18.37978,0 26.95701,9.43743 9.18989,8.8476 9.18989,21.23422 0,12.38662 -7.96457,21.82404 -7.35192,8.8476 -24.50637,8.8476 0,-6.48823 -4.28862,-12.97646 -3.67596,-7.07808 -15.92914,-7.07808 -14.70382,0 -26.34435,7.07808 10.41521,12.38662 17.15446,29.49196 6.73925,16.51549 6.73925,41.87858 0,43.64809 -27.56967,72.55022 -26.95701,28.90212 -82.70901,28.90212 -7.35191,0 -17.15446,-0.58984 -9.18989,-1.17969 -15.31648,-2.35936 -11.64053,5.89839 -20.21776,15.33582 -8.57723,8.84758 -8.57723,21.82404 0,10.61711 6.73925,16.5155 7.35191,5.8984 31.24562,5.8984 h 69.23052 q 54.52667,0 77.80773,24.77324 23.28105,24.77324 23.28105,63.1128 0,50.72616 -39.82286,80.21812 -39.21019,30.0818 -122.53186,30.0818 z M 486.82783,463.8772 q 30.0203,0 42.27349,-17.69517 12.25319,-17.69518 12.25319,-56.03473 0,-39.51922 -12.86585,-58.39407 -12.25318,-19.4647 -42.27349,-19.4647 -29.40765,0 -42.2735,19.4647 -12.86584,19.46469 -12.86584,58.98392 0,37.7497 12.86584,55.44488 13.47851,17.69517 42.88616,17.69517 z m -12.25319,254.2207 q 43.49881,0 67.39253,-9.43743 24.50637,-8.84758 33.69626,-25.36308 9.80255,-15.92567 9.80255,-36.57003 0,-27.13261 -15.92915,-36.57004 -15.92913,-8.84758 -46.5621,-8.84758 h -60.04062 q -17.15446,0 -32.47094,4.12887 -15.31649,4.71871 -25.11903,16.51549 -9.80256,11.79679 -9.80256,35.39035 0,17.69518 6.73925,31.26149 6.73926,13.5663 23.89372,21.2342 17.15446,8.25776 48.40009,8.25776 z"
       id="text55"
       style="font-size:601.141px;line-height:0;font-family:Serif;-inkscape-font-specification:Serif;letter-spacing:40.255px;display:none;stroke-width:40.255"
       aria-label="g"
       inkscape:label="g"
       sodipodi:insensitive="true" />
    <path
       d="m 308.57501,747.00003 v -26.30526 h 5.20001 q 22.1,0 37.69999,-7.51579 15.6,-8.14211 15.6,-37.57895 V 339.89479 q 0,-27.55789 -16.25,-35.07369 -15.6,-7.51579 -37.04999,-7.51579 h -5.20001 v -26.30526 h 119.6 v 137.78947 q 0,11.27369 -0.65001,23.8 -0.65,12.52632 -1.3,21.29474 -0.64999,8.1421 -0.64999,8.1421 h 3.25 q 29.25,-56.99473 95.54999,-56.99473 55.89999,0 85.14999,29.43683 29.9,28.81053 29.9,93.32105 v 147.81052 q 0,29.43684 13.65,37.57895 14.29999,7.51579 36.39999,7.51579 h 1.95001 v 26.30526 h -113.1 V 530.92109 q 0,-40.71052 -16.25,-63.25789 -15.59999,-22.54736 -55.24999,-22.54736 -40.3,0 -59.8,27.55789 -18.84999,27.55789 -18.84999,73.90526 v 132.15262 q 0,27.55789 15.59999,35.07368 16.25,6.88948 37.7,6.88948 h 1.95 v 26.30526 z"
       id="text56"
       style="font-size:638.048px;line-height:0;font-family:Serif;-inkscape-font-specification:Serif;letter-spacing:42.7264px;display:none;stroke-width:42.7264"
       aria-label="h"
       inkscape:label="h"
       sodipodi:insensitive="true" />
    <path
       id="text15-3"
       style="font-size:666.667px;line-height:0;font-family:Serif;-inkscape-font-specification:Serif;letter-spacing:44.6429px;display:none;stroke-width:49.2577"
       inkscape:label="I"
       d="m 500,271 c -29.82338,0 -54,24.17662 -54,54 0,29.82338 24.17662,54 54,54 29.82338,0 54,-24.17662 54,-54 0,-29.82338 -24.17662,-54 -54,-54 z M 370.55273,393 v 25.54297 h 11.56641 c 20.16577,0 37.36691,2.63533 51.60156,7.90625 14.23467,4.86543 21.35157,16.82649 21.35157,35.88281 v 215.33594 c 0,19.05632 -7.1169,31.21932 -21.35157,36.49023 -14.23466,4.86544 -31.43579,7.29883 -51.60156,7.29883 H 370.55273 V 747 h 258.89454 v -25.54297 h -11.56641 c -20.16571,0 -37.36691,-2.43339 -51.60156,-7.29883 -14.23472,-5.27091 -21.35157,-17.43391 -21.35157,-36.49023 V 462.33203 L 544.94727,393 Z"
       sodipodi:nodetypes="sssssccscsscsccccscsccc"
       sodipodi:insensitive="true" />
    <path
       d="m 531.05567,343.65853 c -9.3753,0 -17.38335,-2.73448 -24.02416,-8.20343 -6.25023,-5.4689 -9.37534,-14.84419 -9.37534,-28.12586 0,-13.67229 3.12511,-23.04758 9.37534,-28.12589 6.64081,-5.4689 14.64886,-8.20335 24.02416,-8.20335 8.98468,0 16.79743,2.73445 23.43825,8.20335 6.64082,5.07831 9.96123,14.4536 9.96123,28.12589 0,13.28167 -3.32041,22.65696 -9.96123,28.12586 -6.64079,5.46895 -14.45354,8.20343 -23.43825,8.20343 z m -111.5975,513.29748 16.08668,-27.53998 h 4.10172 c 14.06293,0 25.97737,-3.32041 35.7433,-9.96122 10.15657,-6.2502 17.774,-17.18805 22.8523,-32.81356 5.0782,-15.62545 7.6173,-37.30582 7.6173,-65.04109 V 466.70924 c 0,-17.18801 -4.88295,-28.12584 -14.64886,-32.81349 -9.37527,-4.68765 -20.50843,-7.03147 -33.39946,-7.03147 h -1.75796 V 402.25415 H 560.9393 v 318.76002 c 0,35.1574 -5.07827,62.50202 -15.23481,82.03386 -9.76593,19.92249 -23.43825,33.79013 -41.01694,41.60291 -17.18799,8.20338 -37.11048,12.30507 -59.76746,12.30507 z"
       id="text57"
       style="font-size:74.6667px;line-height:0;font-family:Serif;-inkscape-font-specification:Serif;letter-spacing:5px;display:none;stroke-width:39.2381"
       aria-label="j"
       sodipodi:nodetypes="scscscsssccscssscscccsccsc"
       inkscape:label="j"
       sodipodi:insensitive="true" />
    <path
       d="m 322.12626,747 v -26.30527 h 5.01053 q 21.29474,0 36.32632,-7.51579 15.03159,-8.14211 15.03159,-37.57896 V 339.89461 q 0,-27.5579 -15.6579,-35.07369 -15.03159,-7.51579 -35.70001,-7.51579 h -5.01053 V 270.99986 H 437.3684 v 241.75796 q 0,8.76843 -0.62632,21.92106 0,13.15264 -0.62631,26.30527 -0.62632,13.15264 -1.25264,21.92106 0,8.76843 0,8.76843 l 78.2895,-85.80529 q 20.04211,-22.54738 26.93159,-34.44738 7.51579,-12.52632 7.51579,-21.29474 0,-8.14211 -7.51579,-10.02106 -7.51579,-2.50526 -23.17369,-2.50526 v -26.30527 h 138.41583 v 26.30527 q -21.29475,0 -42.58949,15.6579 -21.29474,15.03158 -45.72107,42.58948 l -43.84211,49.47896 83.30002,124.01057 q 16.28422,25.05264 31.94212,38.20527 16.28421,13.15264 37.57896,13.15264 h 1.87894 V 747 h -8.76842 q -27.5579,0 -45.72107,-1.87895 -17.53684,-1.87895 -30.06316,-7.51579 -11.90001,-6.26316 -23.1737,-18.16316 -10.64737,-12.52632 -23.8,-33.19475 l -62.6316,-98.33161 -46.34738,34.44738 v 56.36844 q 0,27.5579 15.03158,35.07369 15.6579,6.88948 36.32633,6.88948 h 1.87895 V 747 Z"
       id="text58"
       style="font-size:626.316px;line-height:0;font-family:Serif;-inkscape-font-specification:Serif;letter-spacing:41.9408px;display:none;stroke-width:41.9408"
       inkscape:label="k"
       aria-label="k"
       sodipodi:insensitive="true" />
    <path
       d="m 411.06313,747 v -26.30527 h 8.14211 q 21.29474,0 36.32632,-7.51579 15.03159,-8.14211 15.03159,-37.57896 V 339.89461 q 0,-27.5579 -15.6579,-35.07369 -15.03159,-7.51579 -35.70001,-7.51579 h -8.14211 v -26.30527 h 118.37372 v 404.60012 q 0,29.43685 15.03158,37.57896 15.03159,7.51579 36.32633,7.51579 h 8.14211 V 747 Z"
       id="text59"
       style="font-size:626.316px;line-height:0;font-family:Serif;-inkscape-font-specification:Serif;letter-spacing:41.9408px;display:none;stroke-width:41.9408"
       aria-label="l"
       inkscape:label="l"
       sodipodi:insensitive="true" />
    <path
       d="M 99.011001,758.43976 V 721.26363 H 110.5179 q 30.09496,0 48.68303,-10.62176 19.47321,-11.50689 19.47321,-53.10876 V 381.36756 q 0,-38.94642 -19.47321,-49.56817 -19.47321,-10.62175 -48.68303,-10.62175 h -2.65544 V 284.0015 h 138.96792 l 11.5069,71.69683 h 4.42573 q 26.55438,-49.56818 59.30478,-64.61566 33.63555,-15.93263 74.35227,-15.93263 42.487,0 77.0077,18.58807 34.52069,17.70292 51.33847,61.96022 h 7.08116 q 26.55438,-49.56818 61.96022,-64.61566 36.29099,-15.93263 77.0077,-15.93263 67.2711,0 105.33238,41.60187 38.94642,40.71671 38.94642,131.88675 v 208.89445 q 0,41.60187 18.58807,53.10876 19.47321,10.62176 49.56817,10.62176 h 2.65544 v 37.17613 H 731.89039 V 453.06439 q 0,-57.53449 -21.24351,-89.39975 -20.35835,-31.86525 -71.69682,-31.86525 -37.17613,0 -58.41964,18.58806 -21.2435,17.70292 -30.98011,47.79789 -8.85146,30.09496 -8.85146,65.5008 v 193.84697 q 0,41.60187 18.58807,53.10876 19.47321,10.62176 49.56818,10.62176 h 2.65543 v 37.17613 H 457.49513 V 453.06439 q 0,-57.53449 -21.2435,-89.39975 -20.35836,-31.86525 -71.69683,-31.86525 -38.94642,0 -61.07507,20.35836 -22.12865,19.47321 -31.86526,52.22361 -9.73661,32.7504 -9.73661,70.81168 v 186.7658 q 0,38.94643 21.24351,49.56818 22.12865,9.73661 51.33847,9.73661 h 2.65543 v 37.17613 z"
       id="text60"
       style="font-size:885.146px;line-height:0;font-family:Serif;-inkscape-font-specification:Serif;letter-spacing:59.2731px;display:none;stroke-width:59.2731"
       transform="scale(1.0153142,0.98491679)"
       aria-label="m"
       inkscape:label="m"
       sodipodi:insensitive="true" />
    <path
       d="m 200.55221,747 v -36.61537 h 8.13436 q 34.57125,0 58.97445,-10.46153 24.4032,-11.33336 24.4032,-52.30767 V 375.61534 q 0,-38.35892 -24.4032,-48.82045 -23.38635,-10.46154 -56.94076,-10.46154 h -5.08409 v -36.61536 h 164.72175 l 13.21844,70.61534 h 5.08395 Q 420.18116,301.51289 458.81952,286.69231 498.47472,271 547.28126,271 q 80.32725,0 125.06654,40.97442 45.75587,40.10247 45.75587,129.89733 v 205.74368 q 0,40.97431 20.33611,52.30767 21.3528,10.46153 55.92391,10.46153 h 5.0841 V 747 H 622.52442 V 446.2308 q 0,-56.66672 -25.42005,-88.05131 -24.40319,-31.3846 -86.42804,-31.3846 -45.75602,0 -73.20962,20.05123 -26.43675,19.17951 -38.63834,51.43595 -11.1849,32.25643 -11.1849,69.74363 v 183.94867 q 0,38.35891 23.38649,48.82044 24.4032,9.58982 57.9576,9.58982 h 5.08397 V 747 Z"
       id="text61"
       style="font-size:74.6667px;line-height:0;font-family:Serif;-inkscape-font-specification:Serif;letter-spacing:5px;display:none;stroke-width:63.0475"
       aria-label="n"
       inkscape:label="n"
       sodipodi:insensitive="true" />
    <path
       d="m 500.3761,747 q -79.73426,0 -132.38893,-29.79049 -52.65471,-29.79047 -78.98204,-83.54285 -25.57515,-53.75238 -25.57515,-125.63809 0,-71.8857 25.57515,-124.99047 26.32734,-53.10477 78.98204,-82.24761 Q 421.39408,271 501.12833,271 q 75.221,0 127.87568,29.79049 52.6547,29.14284 79.73425,82.89523 27.83176,53.10475 27.83176,124.99047 0,71.88571 -27.83176,125.6381 -27.07957,53.10475 -79.73425,82.89522 Q 576.34931,747 500.3761,747 Z m 0,-34.97144 q 84.24752,0 118.09697,-53.75239 34.60166,-53.75236 34.60166,-149.59998 0,-95.84762 -34.60166,-148.95239 -33.84944,-53.75237 -117.34474,-53.75237 -84.24753,0 -119.60138,53.75237 -34.60166,53.10477 -34.60166,148.95239 0,95.84762 34.60166,149.59998 35.35387,53.75239 118.84915,53.75239 z"
       id="text16-7"
       style="font-size:697.958px;line-height:0;font-family:Serif;-inkscape-font-specification:Serif;letter-spacing:46.7382px;display:none;stroke-width:46.7383"
       aria-label="O"
       inkscape:label="o"
       sodipodi:insensitive="true" />
    <path
       d="m 220.45937,942.84023 v -35.76214 h 8.34448 q 35.46411,0 60.49761,-11.06922 25.03349,-10.21775 25.03349,-50.23728 V 375.75502 q 0,-37.4651 -26.07655,-47.68283 -25.03348,-10.21776 -59.45455,-10.21776 h -13.5598 V 282.0923 h 182.53587 l 10.43061,76.63314 h 4.17225 q 22.94737,-39.16805 60.4976,-62.158 37.55025,-22.98993 99.09089,-22.98993 103.26317,0 157.50239,57.0491 55.28229,56.19764 55.28229,178.81067 0,123.46449 -55.28229,180.51359 Q 675.23445,747 571.97127,747 q -60.4976,0 -99.0909,-20.4355 -37.55023,-21.28699 -60.4976,-54.49468 h -4.17224 q 2.08612,24.69289 3.12918,52.79172 1.04307,27.24734 1.04307,43.42543 v 81.74202 q 0,37.46509 25.03349,46.83136 26.07655,10.21774 60.49761,10.21774 h 3.12918 v 35.76214 z m 334.82294,-250.3349 q 68.84209,0 98.04783,-46.83136 30.24881,-47.68285 30.24881,-137.08817 0,-90.25681 -30.24881,-135.38521 -29.20574,-45.1284 -99.09091,-45.1284 -81.35885,0 -111.60765,45.1284 -30.2488,44.27692 -30.2488,136.23669 0,88.55384 30.2488,136.23669 30.2488,46.83136 112.65073,46.83136 z"
       id="text62"
       style="font-size:816.001px;line-height:0;font-family:Serif;-inkscape-font-specification:Serif;letter-spacing:54.6429px;display:none;stroke-width:63.1081"
       aria-label="p"
       inkscape:label="p"
       sodipodi:insensitive="true" />
    <path
       d="m 779.54063,942.84023 v -35.76214 h -8.34448 q -35.46411,0 -60.49761,-11.06922 -25.03349,-10.21775 -25.03349,-50.23728 V 375.75502 q 0,-37.4651 26.07655,-47.68283 25.03348,-10.21776 59.45455,-10.21776 h 13.5598 V 282.0923 H 602.22008 l -10.43061,76.63314 h -4.17225 q -22.94737,-39.16805 -60.4976,-62.158 -37.55025,-22.98993 -99.09089,-22.98993 -103.26317,0 -157.50239,57.0491 -55.28229,56.19764 -55.28229,178.81067 0,123.46449 55.28229,180.51359 Q 324.76555,747 428.02873,747 q 60.4976,0 99.0909,-20.4355 37.55023,-21.28699 60.4976,-54.49468 h 4.17224 q -2.08612,24.69289 -3.12918,52.79172 -1.04307,27.24734 -1.04307,43.42543 v 81.74202 q 0,37.46509 -25.03349,46.83136 -26.07655,10.21774 -60.49761,10.21774 h -3.12918 v 35.76214 z M 444.71769,692.50533 q -68.84209,0 -98.04783,-46.83136 -30.24881,-47.68285 -30.24881,-137.08817 0,-90.25681 30.24881,-135.38521 29.20574,-45.1284 99.09091,-45.1284 81.35885,0 111.60765,45.1284 30.2488,44.27692 30.2488,136.23669 0,88.55384 -30.2488,136.23669 -30.2488,46.83136 -112.65073,46.83136 z"
       id="path63"
       style="font-size:816.001px;line-height:0;font-family:Serif;-inkscape-font-specification:Serif;letter-spacing:54.6429px;display:none;stroke-width:63.1081"
       aria-label="p"
       inkscape:label="q"
       sodipodi:insensitive="true" />
    <path
       d="m 315.61536,747 v -36.61539 h 2.61539 q 29.64103,0 50.56411,-10.46154 20.92308,-11.33333 20.92308,-52.3077 V 375.61534 q 0,-38.35898 -21.79488,-48.82052 -20.92308,-10.46154 -49.69231,-10.46154 h -2.61539 v -36.61539 h 134.25643 l 16.56411,86.3077 h 4.35897 q 11.33334,-26.15385 24.41026,-47.07693 13.07693,-21.79487 34.8718,-34.8718 21.79488,-13.07692 60.15385,-13.07692 47.94873,0 70.6154,16.5641 23.53846,16.56411 23.53846,47.07693 0,27.02565 -19.17949,44.46155 -18.30769,17.4359 -61.89744,17.4359 0,-35.7436 -10.46154,-51.43591 -10.46154,-16.5641 -35.74359,-16.5641 -24.41026,0 -40.97437,19.17949 -16.5641,19.17949 -26.15385,48.82052 -9.58974,29.64103 -13.94872,61.89744 -4.35897,31.38462 -4.35897,56.66667 v 136.87182 q 0,38.35898 20.92308,48.82052 21.79487,9.58974 50.56411,9.58974 h 24.41025 V 747 Z"
       id="text63"
       style="font-size:871.795px;line-height:0;font-family:Serif;-inkscape-font-specification:Serif;letter-spacing:58.3791px;display:none;stroke-width:58.3791"
       inkscape:label="r"
       aria-label="r"
       sodipodi:insensitive="true" />
    <path
       d="m 486.27747,747.00004 q -64.32435,0 -102.91896,-23.15676 -38.59461,-23.15677 -38.59461,-67.75499 0,-23.15676 8.57658,-36.02163 9.43424,-12.86488 22.29911,-18.01082 12.86487,-5.14595 23.15677,-5.14595 0,45.45587 19.72613,77.18922 20.58379,31.73335 72.90093,31.73335 45.45588,0 69.4703,-21.44145 24.87208,-21.44145 24.87208,-56.60543 0,-21.44145 -9.43423,-35.16398 -8.57658,-13.72253 -31.73335,-26.5874 -22.29911,-13.72253 -64.32435,-31.73335 -43.74056,-18.86847 -72.90093,-37.73695 -28.30272,-18.86848 -42.88291,-42.8829 -13.72252,-24.01443 -13.72252,-61.75138 0,-58.32074 43.74056,-89.19643 44.59821,-31.73335 117.49914,-31.73335 61.75138,0 93.48473,24.01443 31.73335,23.15676 31.73335,54.89011 0,23.15677 -16.29551,37.73695 -16.2955,13.72253 -45.45587,13.72253 0,-42.8829 -18.01082,-66.89733 -18.01082,-24.01442 -55.74777,-24.01442 -43.74056,0 -62.60904,19.72613 -18.86847,18.86848 -18.86847,48.88651 0,32.59101 24.01442,50.60182 24.87208,17.15317 82.33517,40.30993 45.45588,18.86848 73.75859,37.73695 28.30272,18.86848 41.16759,43.74056 13.72252,24.87209 13.72252,60.89372 0,66.89733 -47.17119,101.20365 -46.31353,33.44866 -121.78744,33.44866 z"
       id="text64"
       style="font-size:857.658px;line-height:0;font-family:Serif;-inkscape-font-specification:Serif;letter-spacing:57.4324px;display:none;stroke-width:57.4324"
       inkscape:label="s"
       aria-label="s"
       sodipodi:insensitive="true" />
    <path
       d="m 546.95967,746.99999 c -36.04984,0 -62.37571,-8.06378 -78.97761,-24.19134 -16.12756,-16.6019 -24.19134,-45.29947 -24.19134,-86.09271 V 399.07159 h -54.07476 v -28.4604 c 8.53812,0 13.78659,-0.41807 27.74889,-0.41807 15.83091,0 48.02535,-36.79149 48.02535,-53.65669 0,-13.39118 0.43218,-26.6245 0.43218,-45.53664 h 44.75028 v 87.51573 h 93.20781 v 40.55607 h -93.20781 v 239.77888 c 0,24.19134 4.7434,41.97909 14.2302,53.36325 9.96114,11.38416 23.24266,17.07624 39.84456,17.07624 8.53812,0 16.36473,-0.47434 23.47983,-1.42302 7.1151,-0.94868 14.46737,-2.13453 22.05681,-3.55755 v 31.30644 c -6.16642,2.84604 -15.41605,5.45491 -27.74889,7.82661 -12.33284,2.3717 -24.19134,3.55755 -35.5755,3.55755 z"
       id="text65"
       style="font-size:711.51px;line-height:0;font-family:Serif;-inkscape-font-specification:Serif;letter-spacing:47.6457px;display:none;stroke-width:47.6457"
       aria-label="t"
       sodipodi:nodetypes="scsccccsccccccscssccss"
       inkscape:label="t"
       sodipodi:insensitive="true" />
    <path
       d="m 408.2096,827.72367 q -76.31021,0 -117.84614,-44.4338 -41.53594,-45.39974 -41.53594,-144.8928 V 406.56858 q 0,-42.50188 -24.1488,-54.09331 -23.18285,-11.59142 -55.05927,-11.59142 h -2.89785 v -40.56999 h 172.90541 v 333.25345 q 0,62.78688 21.25094,97.56116 21.25095,34.77427 80.17402,34.77427 63.75284,0 92.7314,-42.50189 28.97856,-43.46784 28.97856,-113.98234 V 410.43239 q 0,-45.39974 -23.18285,-56.99117 -23.18285,-12.55737 -56.02522,-12.55737 H 480.656 v -40.56999 h 172.90542 v 412.46152 q 0,42.50189 23.18285,54.09331 24.1488,10.62547 56.02521,10.62547 h 2.89786 v 40.56999 H 582.08097 l -12.55738,-78.24212 h -4.82976 q -29.94451,54.09332 -69.54854,71.48045 -39.60404,16.42119 -86.93569,16.42119 z"
       id="text66"
       style="font-size:965.952px;line-height:0;font-family:Serif;-inkscape-font-specification:Serif;letter-spacing:64.6841px;display:none;stroke-width:64.6841"
       inkscape:label="u"
       transform="scale(1.1081696,0.90238894)"
       aria-label="u"
       sodipodi:insensitive="true" />
    <path
       d="M 470.09236,746.8458 297.82434,334.31281 q -7.97537,-20.65997 -20.73597,-27.99093 -12.76059,-7.33096 -35.88917,-7.33096 H 230.83122 V 271 h 219.3227 v 27.99092 h -18.34335 q -47.85223,0 -47.85223,31.98964 0,5.33161 1.59507,11.32966 1.59508,5.99807 4.78523,13.32902 l 87.7291,216.59647 q 11.96304,29.32384 20.73594,57.31477 8.77292,27.99093 15.15321,51.98314 5.58277,-23.99221 14.35567,-51.31669 8.77292,-27.32448 22.33105,-57.98122 l 87.72907,-211.93132 q 3.19016,-7.99741 4.78522,-15.32836 2.39262,-7.99741 2.39262,-13.32901 0,-32.6561 -52.63745,-32.6561 H 574.56972 V 271 h 194.59906 v 27.99092 h -15.1532 q -23.12857,0 -35.88918,9.99678 -11.96305,9.33031 -24.72364,41.98639 L 528.31256,746.8458 Z"
       id="text31-1"
       style="font-size:729.119px;line-height:0;font-family:Serif;-inkscape-font-specification:Serif;letter-spacing:48.8248px;display:none;stroke-width:48.8205"
       aria-label="V"
       inkscape:label="v"
       sodipodi:insensitive="true" />
    <path
       d="M 342.62772,746.99614 226.26763,334.33283 q -6.35848,-20.6665 -16.53204,-27.99978 -10.17356,-7.33328 -28.61313,-7.33328 h -8.26601 V 271 H 347.7145 v 27.99977 H 333.09 q -38.15085,0 -38.15085,31.99975 0,5.3333 1.2717,11.33324 1.90754,5.99995 3.81509,13.33322 l 58.49797,213.3316 q 8.26602,29.99976 15.26034,59.33285 6.99432,29.33309 12.0811,53.3329 5.08678,-25.99979 11.44526,-56.6662 6.35847,-31.33308 14.62449,-63.33282 l 75.66584,-285.99767 h 45.78103 l 79.48095,288.66431 q 8.90185,33.33307 15.89617,63.99948 6.99433,30.66642 11.44526,53.3329 5.08678,-23.99981 10.80941,-50.66625 5.72262,-26.66645 14.62448,-58.6662 l 55.95459,-205.99832 q 1.90754,-7.99993 4.45093,-18.6665 2.5434,-10.66659 2.5434,-15.99989 0,-32.6664 -41.96595,-32.6664 H 671.99673 V 271 h 155.14682 v 27.99977 h -12.08113 q -18.43957,0 -29.24899,9.33326 -10.17355,9.33326 -19.07541,42.66632 L 659.27977,746.99614 H 602.0535 L 498.41035,373.66583 401.12569,746.99614 Z"
       id="text32-8"
       style="font-size:651.077px;line-height:0;font-family:Serif;-inkscape-font-specification:Serif;letter-spacing:43.599px;display:none;stroke-width:43.5986"
       inkscape:label="w"
       aria-label="W"
       sodipodi:insensitive="true" />
    <path
       d="m 269.95416,746.99621 v -27.99976 h 4.28659 q 25.71939,0 40.00795,-9.99994 15.00298,-10.66658 34.29255,-36.66637 L 467.85075,512.99808 349.97009,334.33281 q -12.85969,-19.33317 -29.29153,-27.3331 -16.43185,-7.99994 -32.14927,-7.99994 h -9.28758 V 271 h 193.61003 v 27.99977 h -2.14328 q -25.00499,0 -32.8637,5.99995 -7.8587,5.33329 -7.8587,13.33323 0,7.33327 2.85771,14.66655 2.85771,7.33328 14.28857,24.66648 l 64.29852,97.33255 67.87066,-95.99924 q 7.85871,-11.33325 12.85971,-21.33316 5.001,-10.6666 5.001,-19.33318 0,-11.9999 -11.43086,-15.33322 -10.71642,-3.99996 -27.14827,-3.99996 h -2.14328 V 271 h 156.45976 v 27.99977 h -6.42987 q -20.71841,0 -35.7214,10.66658 -15.00298,9.99992 -35.00699,37.33303 L 532.14926,486.33161 663.60404,683.66338 q 15.71741,19.33318 29.29153,27.33313 14.28858,7.99994 27.8627,7.99994 h 9.28757 v 27.99976 H 537.15026 v -27.99976 h 3.57214 q 42.86568,0 42.86568,-21.99983 0,-7.33328 -4.28656,-15.33323 -4.28657,-8.6666 -19.28957,-30.66642 L 489.28359,544.99781 409.98205,654.33028 q -5.7154,8.6666 -12.14525,21.33318 -6.42986,11.99989 -6.42986,22.66647 0,20.66652 46.43783,20.66652 h 2.14328 v 27.99976 z"
       id="text33-5"
       style="font-size:666.667px;line-height:0;font-family:Serif;-inkscape-font-specification:Serif;letter-spacing:44.6429px;display:none;stroke-width:46.2142"
       aria-label="X"
       inkscape:label="x"
       sodipodi:insensitive="true" />
    <path
       d="m 283.40366,952.86132 v -41.29829 q 59.75071,0 97.53425,-22.84586 38.66223,-22.84586 61.5081,-62.38678 23.72454,-38.66222 38.66222,-87.8687 L 318.55114,354.47547 q -12.30162,-27.2393 -24.60324,-36.90486 -12.30162,-9.66555 -37.78354,-9.66555 H 253.5283 V 271.0002 h 210.88488 v 36.90486 h -2.63606 q -52.72122,0 -52.72122,42.17697 0,14.93768 7.0295,32.51142 l 64.14415,156.40629 q 8.78687,20.2098 16.69505,44.81304 8.78687,23.72455 15.81637,46.57041 7.02949,21.96718 9.66555,36.02617 6.15081,-24.60324 15.81637,-51.84254 10.54424,-28.11798 19.33111,-54.47859 l 58.87203,-171.34397 q 7.90819,-21.08849 7.90819,-37.78354 0,-43.05566 -57.99335,-43.05566 h -2.63606 V 271.0002 h 182.7669 v 36.90486 h -2.63606 q -25.48192,0 -38.66223,13.1803 -13.1803,13.18031 -28.11798,55.35728 L 543.49501,745.49119 q -22.84586,64.14415 -43.93435,104.56375 -21.08849,40.41961 -47.4491,62.38678 -25.48192,22.84586 -64.14415,31.63273 -38.66223,8.78687 -96.65557,8.78687 z"
       id="text67"
       style="font-size:878.687px;line-height:0;font-family:Serif;-inkscape-font-specification:Serif;letter-spacing:58.8407px;display:none;stroke-width:58.8407"
       inkscape:label="y"
       aria-label="y"
       sodipodi:insensitive="true" />
    <path
       d="M 307.22449,746.99618 V 720.32973 L 588.51171,304.33305 H 425.74017 q -33.00437,0 -45.75606,16.66655 -12.75168,15.99986 -15.75207,37.99969 l -3.7505,28.66644 H 321.47638 L 325.22687,271 h 355.54705 v 27.3331 L 398.7366,713.66311 h 189.02502 q 33.75446,0 46.50615,-15.99986 12.7517,-16.66653 15.75207,-38.66636 l 3.7505,-28.66645 h 39.00517 l -3.75049,116.66574 z"
       id="text35-0"
       style="font-size:707.156px;line-height:0;font-family:Serif;-inkscape-font-specification:Serif;letter-spacing:47.3542px;display:inline;stroke-width:47.3538"
       aria-label="Z"
       inkscape:label="z"
       sodipodi:insensitive="true" />
  </g>
  <g
     inkscape:groupmode="layer"
     id="layer3"
     inkscape:label="Numbahs"
     sodipodi:insensitive="true">
    <path
       id="rect36"
       style="display:none;stroke-width:4.92145"
       d="m 532.49023,271 -45.23071,0.0645 c 0,47.90855 -126.02439,66.18071 -126.02439,66.18071 0,0 -0.28982,11.12701 -0.28982,24.36407 l 106.56446,-2.72068 v 339.0802 c -0.0417,15.62773 -34.79438,16.50977 -65.37891,16.50977 v 32.54101 h 0.0391 97.82813 v 0.0703 h 97.87109 v -32.54296 -0.0684 h -0.0371 v 0.0684 c -30.59387,-7.1e-4 -65.3418,-0.88667 -65.3418,-16.53516 z"
       sodipodi:nodetypes="ccccccccccccccccsc"
       inkscape:label="1"
       sodipodi:insensitive="true" />
    <path
       d="M 283.16505,840.94104 V 786.91089 L 406.76826,644.06407 q 39.22736,-45.88861 62.17167,-79.19487 22.94431,-34.04639 32.56612,-64.39209 10.36194,-30.3457 10.36194,-64.39209 0,-42.18792 -18.50347,-68.09279 -18.50348,-25.90486 -56.9907,-25.90486 -34.0464,0 -51.80973,15.54292 -17.0232,15.54292 -23.68445,40.70764 -5.92111,25.16473 -5.92111,54.03015 -26.645,0 -45.14848,-9.62181 -18.50347,-10.36195 -18.50347,-38.48723 0,-42.92806 36.26681,-71.05334 37.00695,-28.12528 108.80043,-28.12528 69.57306,0 109.54057,34.04639 40.70764,33.30626 40.70764,89.55682 0,51.80973 -32.56612,101.39904 -32.56611,48.84917 -91.03709,113.24126 L 337.93533,781.72992 h 170.97211 q 33.30625,0 45.14847,-17.02319 11.84223,-17.0232 17.0232,-38.48723 l 2.96056,-13.3225 h 31.08583 l -3.70069,128.04404 z"
       id="text40"
       style="font-size:740.139px;line-height:0;font-family:Serif;-inkscape-font-specification:Serif;letter-spacing:49.5627px;display:none;stroke-width:49.5627"
       transform="scale(1.1257578,0.88829054)"
       aria-label="2"
       inkscape:label="2"
       sodipodi:insensitive="true" />
    <path
       d="m 465.46002,774.80705 q -66.59156,0 -96.86045,-22.19719 -30.26889,-22.86983 -30.26889,-52.46608 0,-20.17926 11.43492,-31.61417 11.43491,-11.43492 30.94153,-11.43492 0,35.65003 22.19719,58.51986 22.19718,22.86983 63.22835,22.86983 26.90568,0 49.10287,-10.08963 22.86982,-10.08963 36.99531,-33.6321 14.12548,-24.21512 14.12548,-64.57364 0,-42.37645 -32.95946,-67.93684 -32.28682,-25.5604 -88.78875,-25.5604 h -21.52454 v -34.30474 h 21.52454 q 29.59625,0 53.13872,-12.7802 24.21512,-12.7802 38.3406,-36.32267 14.12548,-23.54247 14.12548,-55.15665 0,-39.01324 -16.81605,-61.21042 -16.14341,-22.19719 -55.15665,-22.19719 -30.94153,0 -47.08494,14.12548 -15.47077,14.12549 -21.52454,36.99531 -5.38114,22.86983 -5.38114,49.10287 -24.21511,0 -41.03116,-8.74434 -16.81605,-9.41699 -16.81605,-34.97739 0,-39.01324 32.95946,-64.57363 33.6321,-25.5604 98.87837,-25.5604 63.22835,0 102.24159,28.25096 39.01324,27.57833 39.01324,78.69912 0,30.26889 -14.12548,55.82929 -14.12549,24.88775 -38.3406,43.04909 -24.21511,17.48869 -55.15665,24.88775 18.83398,2.01793 40.35853,8.74435 21.52454,6.05378 40.35852,19.50662 19.50662,13.45284 31.61417,35.65003 12.10756,21.52454 12.10756,55.15664 0,40.35853 -15.47077,68.60949 -15.47076,27.57832 -41.03116,44.39437 -25.5604,16.14341 -55.82929,23.54248 -29.59625,7.39906 -58.51986,7.39906 z"
       id="text41"
       style="font-size:672.642px;line-height:0;font-family:Serif;-inkscape-font-specification:Serif;letter-spacing:45.043px;display:none;stroke-width:45.043"
       inkscape:label="3"
       transform="scale(1.037225,0.96411097)"
       aria-label="3"
       sodipodi:insensitive="true" />
    <path
       d="m 445.98192,760.99304 v -28.52451 h 19.01634 c 15.39419,0 28.52452,-2.71662 39.391,-8.14986 10.86648,-5.88601 16.29972,-19.46911 16.29972,-40.7493 V 627.87866 H 311.50923 V 600.0333 l 209.8589,-323.95695 h 71.46078 v 313.76962 h 84.21522 v 38.03269 h -84.21522 v 55.69071 c 0,21.28019 5.43324,34.86329 16.29972,40.7493 10.86648,5.43324 23.99681,8.14986 39.39099,8.14986 h 8.82902 v 28.52451 z M 360.40839,589.84597 H 520.68898 V 464.20229 420.05722 c 0.45277,-16.75249 1.13192,-33.50498 2.03746,-50.25747 0.90554,-16.75249 1.81108,-32.14668 2.71662,-46.18255 -2.26385,4.5277 -5.88601,11.31925 -10.86648,20.37465 -4.98047,9.0554 -10.64009,19.01634 -16.97887,29.88283 -6.33878,10.41371 -12.45118,20.60103 -18.33719,30.56197 -5.88601,9.50817 -10.86648,17.43165 -14.94141,23.77043 z"
       id="text42"
       style="font-size:679.155px;line-height:0;font-family:Serif;-inkscape-font-specification:Serif;letter-spacing:45.4791px;display:none;stroke-width:45.4791"
       transform="scale(1.0187323,0.98161214)"
       aria-label="4"
       sodipodi:nodetypes="ccscscccccccccscscccccccscsccsc"
       inkscape:label="4"
       sodipodi:insensitive="true" />
    <path
       d="m 458.5379,783.33444 q -51.01841,0 -79.28537,-11.031 -28.26695,-11.03101 -39.9874,-26.88809 -11.03101,-15.85707 -11.03101,-31.71414 0,-19.30427 10.34157,-29.64584 11.03101,-11.031 33.09303,-11.031 0,29.64583 20.68314,49.63953 20.68313,19.9937 62.73885,19.9937 28.26696,0 50.32898,-11.03101 22.75145,-11.031 35.16133,-35.85077 13.09932,-25.50921 13.09932,-69.63324 0,-54.4656 -28.95639,-80.66424 -28.26696,-26.88808 -75.83818,-26.88808 -35.85078,0 -53.77616,4.82606 -17.92539,4.82607 -31.02471,10.34157 l -16.54651,-4.82606 22.06201,-244.75049 h 230.27229 l 3.44719,104.10514 h -28.9564 l -2.75775,-20.68314 q -2.06831,-14.4782 -8.96269,-21.37258 -6.20494,-6.89438 -28.26696,-6.89438 H 400.62511 l -13.09932,152.36579 q 10.34157,-3.44719 30.33527,-6.89438 19.9937,-4.13662 50.32897,-4.13662 44.12404,0 79.97481,16.54651 35.85078,15.85707 56.53392,48.26066 20.68314,32.40358 20.68314,80.66424 0,46.88179 -19.99371,82.73256 -19.30426,35.16134 -57.22335,55.15504 -37.22965,19.30426 -89.62694,19.30426 z"
       id="text43"
       style="font-size:689.438px;line-height:0;font-family:Serif;-inkscape-font-specification:Serif;letter-spacing:46.1678px;display:none;stroke-width:46.1678"
       transform="scale(1.0486401,0.95361602)"
       aria-label="5"
       inkscape:label="5"
       sodipodi:insensitive="true" />
    <path
       d="m 460.6239,821.67239 q -47.79291,0 -84.88592,-26.3931 -37.093,-27.10642 -59.20614,-84.88591 -21.39981,-58.49282 -21.39981,-152.65199 0,-50.64621 11.41323,-97.01247 11.41323,-47.07959 34.2397,-83.45926 22.82646,-37.09301 57.77949,-57.77949 35.66635,-21.39981 82.74593,-21.39981 59.20615,0 88.45255,22.82646 29.24641,22.82647 29.24641,52.07287 0,42.79963 -54.92618,42.79963 0,-34.95303 -14.26654,-59.20615 -14.26654,-24.25312 -48.50624,-24.25312 -53.49952,0 -81.31928,53.49953 -27.81975,52.7862 -31.38639,156.21862 17.83318,-14.26654 42.0863,-25.67977 24.96644,-11.41324 59.91947,-11.41324 64.91276,0 104.14574,39.23299 39.23299,38.51966 39.23299,106.99905 0,50.64622 -18.5465,89.16588 -17.83318,37.80634 -52.07288,59.91947 -34.23969,21.39981 -82.74593,21.39981 z m 2.13998,-39.23298 q 37.80633,0 57.77949,-29.24641 20.68648,-29.95974 20.68648,-94.8725 0,-60.63279 -22.11314,-88.45255 -21.39981,-28.53308 -62.77277,-28.53308 -27.81976,0 -51.35955,13.55322 -22.82646,12.83988 -37.09301,27.81975 0.71333,106.99905 26.3931,153.36531 25.67978,46.36626 68.4794,46.36626 z"
       id="text44"
       style="font-size:713.327px;line-height:0;font-family:Serif;-inkscape-font-specification:Serif;letter-spacing:47.7674px;display:none;stroke-width:47.7674"
       transform="scale(1.0999633,0.90912124)"
       aria-label="6"
       inkscape:label="6"
       sodipodi:insensitive="true" />
    <path
       id="text45"
       style="font-size:666.667px;line-height:0;font-family:Serif;-inkscape-font-specification:Serif;letter-spacing:44.6428px;display:none;fill:#000000;stroke-width:44.6428"
       d="m 352.66602,271 -3.33204,120.66602 h 28 L 380,358.33398 c 2.22222,-22.66665 15.11047,-34 38.66602,-34 H 594 l -134.46094,361.21875 -0.51367,-0.0137 c -4.81629,17.97465 -25.17747,32.27134 -80.70117,32.88086 V 747 h 58.3418 50 63.46289 v -28.58008 c -27.19726,0 -41.60179,-10.66721 -42.57227,-29.59375 L 650.66602,290.33398 V 271 Z"
       inkscape:label="7"
       sodipodi:insensitive="true" />
    <path
       d="m 495.46109,746.99978 q -52.37199,0 -87.98495,-16.21254 -34.91466,-16.86104 -53.07029,-44.0981 -17.45733,-27.88557 -17.45733,-62.25614 0,-31.12807 13.96586,-52.52862 13.96587,-21.40055 37.70784,-36.96458 23.74197,-15.56404 54.46688,-29.18257 -39.80272,-20.75204 -64.94127,-49.28611 -25.13857,-28.53407 -25.13857,-69.38966 0,-29.83107 15.36246,-56.41963 15.36245,-26.58856 48.18223,-42.8011 33.51808,-16.86104 87.28666,-16.86104 65.63957,0 101.25252,31.77658 36.31126,31.12807 36.31126,79.76568 0,42.8011 -25.83685,66.79565 -25.83685,23.34605 -68.43275,42.8011 51.67371,22.69755 83.79519,52.52862 32.1215,29.83106 32.1215,71.98366 0,61.60765 -46.08736,95.97822 -45.38906,34.37058 -121.50303,34.37058 z m 17.45734,-269.77662 q 39.10442,-18.15803 52.37199,-40.20708 13.96586,-22.04906 13.96586,-55.77114 0,-19.45504 -7.68122,-37.61308 -7.68123,-18.80655 -25.13855,-30.47957 -17.45734,-11.67303 -46.78565,-11.67303 -39.10443,0 -60.05323,22.04905 -20.9488,22.04906 -20.9488,55.77113 0,35.01908 23.74197,56.41963 23.74198,21.40054 70.52763,41.50409 z m -13.96587,239.94555 q 45.38906,0 72.6225,-23.99455 27.93173,-24.64306 27.93173,-62.25615 0,-33.07357 -27.93173,-57.71663 -27.23344,-24.64306 -94.96789,-51.88011 -32.81978,16.86103 -52.37199,43.4496 -19.55222,25.94005 -19.55222,62.25613 0,40.2071 23.74198,65.49866 23.74197,24.64305 70.52762,24.64305 z"
       id="text46"
       style="font-size:672.937px;line-height:0;font-family:Serif;-inkscape-font-specification:Serif;letter-spacing:45.0627px;display:none;stroke-width:45.0627"
       aria-label="8"
       inkscape:label="8"
       sodipodi:insensitive="true" />
    <path
       d="m 420.23036,822.50333 q -40.64539,0 -63.46385,-9.27 -22.10539,-9.27 -31.37539,-22.81846 -8.55693,-14.26154 -8.55693,-29.23616 0,-13.54847 6.4177,-22.10539 7.13077,-9.27 14.97461,-12.12231 9.98308,22.10539 29.23616,39.21924 19.96616,17.11385 53.48078,17.11385 59.18539,0 86.9954,-52.7677 28.52308,-52.7677 32.08846,-160.44234 -15.68769,18.54001 -42.07154,33.51463 -25.67077,14.97461 -62.75078,14.97461 -62.0377,0 -101.25694,-36.36693 -39.21923,-36.36692 -39.21923,-108.3877 0,-51.34155 17.82692,-90.56079 18.54,-39.93231 52.7677,-62.0377 34.2277,-22.81846 82.00386,-22.81846 47.77616,0 85.56924,24.95769 37.79308,24.9577 59.1854,77.7254 21.39231,52.7677 21.39231,136.91079 0,56.33308 -10.69616,107.67463 -10.69615,50.62847 -34.2277,90.56078 -22.81846,39.93232 -59.89847,63.46386 -36.36692,22.81846 -88.42155,22.81846 z m 30.66231,-246.01157 q 34.94078,0 57.04617,-17.11385 22.81846,-17.82693 32.80154,-40.64539 -1.42615,-94.83925 -27.09693,-137.62387 -24.95769,-43.4977 -66.31616,-43.4977 -37.79308,0 -58.47232,33.51462 -20.67923,32.80155 -20.67923,95.55233 0,58.47231 20.67923,84.14309 20.67924,25.67077 62.0377,25.67077 z"
       id="text47"
       style="font-size:713.077px;line-height:0;font-family:Serif;-inkscape-font-specification:Serif;letter-spacing:47.7507px;display:none;stroke-width:47.7507"
       inkscape:label="9"
       transform="scale(1.1010754,0.90820302)"
       aria-label="9"
       sodipodi:insensitive="true" />
    <path
       d="m 443.67297,842.53079 q -59.97775,0 -98.01242,-33.64605 -38.03467,-33.64606 -56.32057,-94.35525 -17.55447,-60.70918 -17.55447,-141.89857 0,-81.1894 17.55447,-141.16715 18.2859,-59.97775 56.32057,-92.89237 38.03467,-32.91461 98.74385,-32.91461 57.05201,0 94.35524,32.91461 38.03468,32.91462 57.05201,93.62381 19.01734,59.97775 19.01734,141.16714 0,81.1894 -19.01734,141.89858 -19.01733,59.97775 -57.05201,93.62381 -38.03467,33.64605 -95.08667,33.64605 z m 0,-39.49754 q 53.39482,0 73.87503,-60.70919 21.21164,-60.70918 21.21164,-168.96171 0,-108.25252 -21.21164,-168.23027 -20.48021,-59.97775 -73.1436,-59.97775 -53.39482,0 -75.3379,59.97775 -21.21164,59.97775 -21.21164,168.23027 0,108.25253 21.21164,168.96171 21.21164,60.70919 74.60647,60.70919 z"
       id="text48"
       style="font-size:731.436px;line-height:0;font-family:Serif;-inkscape-font-specification:Serif;letter-spacing:48.9801px;display:none;stroke-width:48.9801"
       transform="scale(1.1278859,0.8866145)"
       aria-label="0"
       inkscape:label="0"
       sodipodi:insensitive="true" />
  </g>
</svg>
